<?xml version="1.0" standalone="no"?>
<!DOCTYPE svg PUBLIC "-//W3C//DTD SVG 20010904//EN"
 "http://www.w3.org/TR/2001/REC-SVG-20010904/DTD/svg10.dtd">
<svg version="1.0" xmlns="http://www.w3.org/2000/svg"
 width="130.000000pt" height="130.000000pt" viewBox="0 0 130.000000 130.000000"
 preserveAspectRatio="xMidYMid meet">

<g transform="translate(0.000000,130.000000) scale(0.100000,-0.100000)"
fill="#000000" stroke="none">
<path d="M575 1294 c-11 -2 -45 -9 -75 -15 -212 -41 -416 -238 -476 -459 -24
-87 -24 -253 0 -340 46 -171 180 -333 337 -408 111 -53 173 -67 294 -66 186 1
318 57 450 189 134 134 189 265 189 455 0 190 -55 321 -189 455 -87 87 -157
130 -269 164 -66 21 -219 35 -261 25z m216 -120 c186 -56 327 -197 383 -383
21 -71 21 -211 0 -282 -56 -186 -197 -327 -383 -383 -71 -21 -211 -21 -282 0
-186 56 -327 197 -383 383 -21 71 -21 211 0 282 55 184 189 320 374 380 72 23
217 25 291 3z"/>
<path d="M595 948 c-65 -36 -105 -112 -105 -203 0 -38 -3 -42 -32 -50 -29 -9
-33 -14 -33 -45 0 -33 2 -36 43 -44 29 -7 42 -15 42 -27 0 -35 -32 -103 -66
-141 -33 -37 -34 -41 -21 -61 17 -25 40 -26 135 -6 50 10 73 10 108 1 99 -27
208 -4 220 45 9 35 -13 56 -50 48 -55 -13 -257 -2 -255 13 0 4 6 33 13 65 l12
59 55 1 c59 2 89 18 89 47 0 30 -30 45 -99 50 -64 5 -66 6 -69 34 -13 115 68
177 139 107 16 -16 29 -38 29 -49 0 -41 61 -56 83 -20 26 40 -36 148 -100 174
-39 17 -110 18 -138 2z"/>
</g>
</svg>
