<?xml version="1.0" standalone="no"?>
<!DOCTYPE svg PUBLIC "-//W3C//DTD SVG 20010904//EN"
 "http://www.w3.org/TR/2001/REC-SVG-20010904/DTD/svg10.dtd">
<svg version="1.0" xmlns="http://www.w3.org/2000/svg"
 width="1024.000000pt" height="1024.000000pt" viewBox="0 0 1024.000000 1024.000000"
 preserveAspectRatio="xMidYMid meet">

<g transform="translate(0.000000,1024.000000) scale(0.100000,-0.100000)"
fill="#000000" stroke="none">
<path d="M3300 6170 c-109 -23 -211 -103 -263 -207 -29 -57 -57 -180 -57 -250
0 -207 103 -384 258 -444 81 -32 233 -32 314 0 74 29 156 103 195 178 34 64
63 184 63 263 0 79 -29 199 -63 263 -40 75 -121 150 -194 177 -64 24 -187 34
-253 20z m182 -102 c52 -15 123 -80 152 -137 62 -122 62 -320 0 -442 -29 -57
-100 -122 -152 -137 -168 -51 -321 49 -361 236 -24 113 -10 255 35 343 27 54
99 121 146 136 45 15 133 15 180 1z"/>
<path d="M6922 6169 c-234 -39 -370 -259 -334 -541 26 -213 148 -346 346 -379
124 -21 279 6 384 67 l42 25 0 194 0 195 -160 0 -160 0 0 -50 0 -50 100 0 100
0 0 -124 0 -124 -47 -19 c-37 -14 -74 -18 -158 -18 -131 1 -181 20 -245 92
-59 68 -75 125 -75 273 0 146 17 207 77 275 59 67 122 90 248 90 94 0 111 -3
165 -28 32 -15 74 -39 91 -52 18 -14 35 -25 38 -25 3 0 6 27 6 60 l0 61 -72
34 c-107 50 -221 65 -346 44z"/>
<path d="M2110 5710 l0 -450 60 0 60 0 2 374 3 374 195 -374 195 -374 83 0 82
0 0 450 0 450 -60 0 -60 0 -2 -374 -3 -374 -195 374 -195 374 -82 0 -83 0 0
-450z"/>
<path d="M4390 5710 l0 -450 60 0 60 0 0 450 0 450 -60 0 -60 0 0 -450z"/>
<path d="M4750 5710 l0 -450 60 0 60 0 2 391 3 390 99 -268 c54 -147 106 -285
114 -305 14 -38 14 -38 72 -38 58 0 58 0 72 38 8 20 60 158 114 305 l99 268 3
-390 2 -391 60 0 60 0 0 450 0 451 -91 -3 -91 -3 -112 -302 c-61 -167 -113
-303 -116 -303 -3 0 -55 136 -116 303 l-111 302 -92 3 -91 3 0 -451z"/>
<path d="M5987 6013 c-30 -82 -107 -284 -170 -450 l-115 -303 62 0 62 0 40
113 39 112 205 3 205 2 40 -115 40 -115 62 0 61 0 -130 343 c-71 188 -148 390
-170 450 l-40 107 -68 0 -67 0 -56 -147z m206 -195 c43 -117 77 -216 77 -220
0 -5 -72 -8 -160 -8 -88 0 -160 3 -160 8 0 14 155 432 160 432 3 0 40 -96 83
-212z"/>
<path d="M7580 5710 l0 -450 290 0 290 0 0 50 0 50 -230 0 -230 0 0 165 0 165
215 0 215 0 0 50 0 50 -215 0 -215 0 0 135 0 135 225 0 225 0 0 50 0 50 -285
0 -285 0 0 -450z"/>
<path d="M2127 4503 c-30 -82 -107 -284 -170 -450 l-115 -303 62 0 62 0 40
113 39 112 205 3 205 2 40 -115 40 -115 62 0 61 0 -130 343 c-71 188 -148 390
-170 450 l-40 107 -68 0 -67 0 -56 -147z m206 -195 c43 -117 77 -216 77 -220
0 -5 -72 -8 -160 -8 -88 0 -160 3 -160 8 0 14 155 432 160 432 3 0 40 -96 83
-212z"/>
<path d="M2717 4348 c63 -167 140 -369 170 -450 l56 -148 67 0 68 0 40 108
c22 59 99 261 170 450 l130 342 -61 0 -62 0 -140 -375 c-77 -206 -142 -375
-145 -375 -3 0 -68 169 -145 375 l-140 375 -61 0 -62 0 115 -302z"/>
<path d="M3647 4503 c-30 -82 -107 -284 -170 -450 l-115 -303 62 0 62 0 40
113 39 112 205 3 205 2 40 -115 40 -115 62 0 61 0 -130 343 c-71 188 -148 390
-170 450 l-40 107 -68 0 -67 0 -56 -147z m206 -195 c43 -117 77 -216 77 -220
0 -5 -72 -8 -160 -8 -88 0 -160 3 -160 8 0 14 155 432 160 432 3 0 40 -96 83
-212z"/>
<path d="M4310 4200 l0 -450 60 0 60 0 0 450 0 450 -60 0 -60 0 0 -450z"/>
<path d="M4670 4200 l0 -450 280 0 280 0 0 50 0 50 -220 0 -220 0 0 400 0 400
-60 0 -60 0 0 -450z"/>
<path d="M5567 4503 c-30 -82 -107 -284 -170 -450 l-115 -303 62 0 62 0 40
113 39 112 205 3 205 2 40 -115 40 -115 62 0 61 0 -130 343 c-71 188 -148 390
-170 450 l-40 107 -68 0 -67 0 -56 -147z m206 -195 c43 -117 77 -216 77 -220
0 -5 -72 -8 -160 -8 -88 0 -160 3 -160 8 0 14 155 432 160 432 3 0 40 -96 83
-212z"/>
<path d="M6230 4201 l0 -451 177 0 c211 0 284 11 355 53 72 44 103 105 103
202 -1 108 -51 184 -145 216 l-33 12 39 18 c50 24 80 59 93 107 33 115 -14
215 -121 263 -49 21 -69 24 -260 27 l-208 4 0 -451z m391 339 c19 -6 46 -22
60 -36 20 -22 24 -36 24 -89 0 -111 -43 -135 -237 -135 l-118 0 0 135 0 135
118 0 c64 0 133 -5 153 -10z m39 -382 c55 -28 80 -73 80 -143 0 -70 -25 -115
-80 -142 -39 -20 -59 -23 -177 -23 l-133 0 0 165 0 165 133 0 c118 0 138 -3
177 -22z"/>
<path d="M7070 4200 l0 -450 280 0 280 0 0 50 0 50 -220 0 -220 0 0 400 0 400
-60 0 -60 0 0 -450z"/>
<path d="M7760 4200 l0 -450 290 0 290 0 0 50 0 50 -230 0 -230 0 0 165 0 165
215 0 215 0 0 50 0 50 -215 0 -215 0 0 135 0 135 225 0 225 0 0 50 0 50 -285
0 -285 0 0 -450z"/>
</g>
</svg>
