<?xml version="1.0" standalone="no"?>
<!DOCTYPE svg PUBLIC "-//W3C//DTD SVG 20010904//EN"
 "http://www.w3.org/TR/2001/REC-SVG-20010904/DTD/svg10.dtd">
<svg version="1.0" xmlns="http://www.w3.org/2000/svg"
 width="600.000000pt" height="600.000000pt" viewBox="0 0 600.000000 600.000000"
 preserveAspectRatio="xMidYMid meet">

<g transform="translate(0.000000,600.000000) scale(0.100000,-0.100000)"
fill="#000000" stroke="none">
<path d="M0 3000 l0 -3000 3000 0 3000 0 0 3000 0 3000 -3000 0 -3000 0 0
-3000z m3180 1835 c425 -69 773 -364 909 -771 185 -552 -74 -1157 -601 -1404
-98 -46 -231 -86 -317 -96 -34 -4 -60 -9 -57 -11 2 -3 60 -11 128 -19 600 -69
1147 -411 1482 -926 78 -121 178 -330 222 -466 l38 -116 -92 -87 c-399 -378
-933 -628 -1527 -715 -168 -25 -562 -25 -730 0 -594 87 -1128 337 -1527 715
l-92 87 38 116 c65 202 195 446 329 618 75 96 240 262 337 340 299 239 664
391 1038 434 68 8 126 16 128 19 3 2 -23 7 -57 11 -86 10 -219 50 -317 96
-527 247 -786 852 -601 1404 178 532 717 860 1269 771z"/>
</g>
</svg>
