<svg width="600" height="600" viewBox="0 0 600 600" fill="none" xmlns="http://www.w3.org/2000/svg">
<path d="M275.233 67.3374C423.289 54.2252 423.576 137.583 490.308 215.29C557.041 292.997 571.345 328.221 546.176 417.825C521.006 507.429 436.256 577.638 331.351 537.849C226.446 498.059 166.412 536.275 100.264 500.896C34.1169 465.518 9.59211 397.358 58.0088 316.873C106.426 236.389 92.6348 83.5726 275.233 67.3374Z" fill="#1355FF"/>
<path opacity="0.7" d="M275.233 67.3374C423.289 54.2252 423.576 137.583 490.308 215.29C557.041 292.997 571.345 328.221 546.176 417.825C521.006 507.429 436.256 577.638 331.351 537.849C226.446 498.059 166.412 536.275 100.264 500.896C34.1169 465.518 9.59211 397.358 58.0088 316.873C106.426 236.389 92.6348 83.5726 275.233 67.3374Z" fill="white"/>
<path opacity="0.2" d="M337.86 487.783L335.663 487.544C334.645 487.481 333.684 487.057 332.95 486.349C332.217 485.641 331.761 484.696 331.664 483.682C330.47 471.083 319.58 462.226 305.395 460.617C292.632 459.186 277.933 464.813 268.286 474.444C267.085 475.716 265.618 476.708 263.99 477.35C262.362 477.993 260.613 478.271 258.865 478.163L248 476.971C246.506 476.85 245.09 476.253 243.962 475.268C242.833 474.283 242.051 472.962 241.731 471.5C239.176 460.486 229.29 452.106 216.514 450.675C202.341 449.09 186.39 454.955 176.957 466.362C176.21 467.284 175.251 468.012 174.162 468.485C173.072 468.958 171.885 469.162 170.7 469.08L168.515 468.83C167.999 468.8 167.487 468.939 167.056 469.225C166.626 469.511 166.3 469.928 166.127 470.415L164.324 475.672C164.177 476.02 164.173 476.412 164.314 476.762C164.455 477.113 164.729 477.394 165.077 477.543L167.56 478.735C168.518 479.215 169.28 480.012 169.716 480.991C170.151 481.969 170.233 483.067 169.948 484.099C165.996 501.157 175.918 515.938 193.458 517.893C210.341 519.788 228.597 509.12 236.705 493.433C237.382 492.165 238.364 491.085 239.562 490.288C240.76 489.491 242.137 489.003 243.57 488.867C247.44 488.544 251.336 488.948 255.056 490.059C256.247 490.41 257.262 491.197 257.897 492.262C258.532 493.327 258.742 494.592 258.483 495.805C255.57 512.112 265.42 525.963 282.363 527.858C299.879 529.825 318.852 518.322 326.482 501.634C327.034 500.5 327.84 499.507 328.838 498.734C329.836 497.961 330.999 497.428 332.237 497.176L335.353 496.568C335.787 496.502 336.195 496.321 336.535 496.044C336.875 495.767 337.135 495.405 337.287 494.994L339.09 489.738C339.176 489.529 339.211 489.302 339.192 489.077C339.172 488.853 339.099 488.635 338.979 488.444C338.859 488.253 338.695 488.093 338.5 487.978C338.305 487.863 338.086 487.796 337.86 487.783ZM194.95 513.482C178.676 511.659 169.936 497.08 175.464 480.976C180.993 464.872 198.724 453.274 214.998 455.098C231.272 456.921 240.072 471.5 234.496 487.592C228.92 503.684 211.225 515.366 194.95 513.482ZM239.905 484.958C240.131 484.028 240.323 483.098 240.466 482.18C240.553 481.8 240.772 481.463 241.085 481.23C241.398 480.996 241.783 480.881 242.173 480.905L261.659 483.086C261.832 483.103 261.997 483.163 262.139 483.263C262.28 483.362 262.394 483.496 262.469 483.652C262.543 483.808 262.576 483.98 262.564 484.153C262.552 484.325 262.495 484.492 262.4 484.636C261.934 485.506 261.504 486.388 261.098 487.294C253.242 483.408 244.573 484.111 239.905 484.958ZM283.844 523.448C267.57 521.624 258.77 507.046 264.346 490.942C269.922 474.837 287.617 463.239 303.891 465.063C320.165 466.887 328.905 481.465 323.377 497.557C317.849 513.649 300.118 525.271 283.844 523.448Z" fill="#061237" fill-opacity="0.7"/>
<path d="M323.437 488.737L197.064 483.433C194.081 483.308 191.104 483.811 188.328 484.907C185.551 486.004 183.036 487.67 180.945 489.798L158.259 512.875C158.05 513.091 157.893 513.35 157.798 513.635C157.703 513.92 157.673 514.222 157.711 514.519C157.749 514.817 157.853 515.102 158.016 515.354C158.179 515.606 158.397 515.818 158.653 515.975C159.78 516.638 161.097 516.907 162.395 516.739C163.693 516.571 164.897 515.974 165.817 515.045L186.879 493.732C188.131 492.463 189.632 491.467 191.289 490.807C192.945 490.146 194.72 489.835 196.503 489.893L323.067 494.065L323.437 488.737Z" fill="#061237"/>
<path d="M155.011 469.893L279.927 489.656C282.877 490.126 285.695 491.208 288.2 492.832C290.705 494.456 292.841 496.586 294.47 499.085L312.141 526.191C312.307 526.441 312.414 526.725 312.453 527.022C312.492 527.319 312.463 527.622 312.368 527.906C312.272 528.19 312.113 528.448 311.902 528.661C311.691 528.874 311.434 529.037 311.15 529.136C309.91 529.577 308.558 529.589 307.31 529.169C306.063 528.75 304.993 527.923 304.273 526.823L287.939 501.791C286.965 500.3 285.692 499.026 284.2 498.052C282.708 497.077 281.029 496.422 279.271 496.129L154.414 475.197L155.011 469.893Z" fill="#061237"/>
<path d="M229.11 491.039C230.59 491.587 228.692 502.005 224.596 504.973C220.501 507.942 218.459 498.668 219.904 495.747C221.349 492.827 224.465 489.287 229.11 491.039Z" fill="#757575" stroke="#061237" stroke-linecap="round" stroke-linejoin="round"/>
<path d="M250.983 493.482C249.418 493.697 248.965 504.27 252.296 508.072C255.627 511.875 259.687 503.304 258.923 500.122C258.158 496.939 255.902 492.803 250.983 493.482Z" fill="#757575" stroke="#061237" stroke-linecap="round" stroke-linejoin="round"/>
<path opacity="0.4" d="M177.899 456.816C185.386 452.393 200.848 445.337 214.364 456.995C227.88 468.653 231.379 479.345 225.946 492.088C220.513 504.83 207.881 520.875 186.03 513.866C164.18 506.857 154.64 470.548 177.899 456.816Z" fill="white"/>
<path opacity="0.4" d="M266.708 467.949C274.206 463.526 289.657 456.47 303.173 468.127C316.689 479.785 320.199 490.466 314.755 503.22C309.31 515.975 296.725 532.055 274.839 524.987C252.953 517.918 243.437 481.681 266.708 467.949Z" fill="white"/>
<path d="M326.348 487.283L324.152 487.033C323.063 486.92 322.031 486.491 321.183 485.801C320.335 485.111 319.707 484.189 319.376 483.147C315.435 470.428 302.839 461.488 288.666 459.903C275.902 458.46 262.804 464.158 255.544 473.897C254.601 475.197 253.333 476.228 251.867 476.887C250.4 477.546 248.787 477.809 247.186 477.652L236.309 476.46C234.712 476.259 233.196 475.644 231.912 474.675C230.628 473.707 229.62 472.419 228.99 470.941C226.312 465.254 222.226 460.344 217.117 456.673C212.009 453.002 206.048 450.692 199.796 449.961C185.624 448.364 171.355 454.3 164.693 465.827C164.141 466.768 163.327 467.529 162.349 468.016C161.372 468.503 160.274 468.695 159.188 468.569L157.003 468.318C156.525 468.265 156.045 468.403 155.669 468.703C155.293 469.002 155.052 469.438 154.998 469.916L154.401 475.22C154.358 475.624 154.453 476.03 154.669 476.374C154.886 476.718 155.212 476.979 155.595 477.116L158.293 478.367C159.336 478.838 160.222 479.599 160.844 480.558C161.467 481.518 161.8 482.636 161.803 483.779C161.769 492.047 164.739 500.047 170.164 506.295C175.588 512.543 183.097 516.615 191.3 517.756C199.503 518.897 207.841 517.03 214.77 512.5C221.698 507.971 226.746 501.087 228.978 493.124C229.34 491.868 230.079 490.752 231.095 489.928C232.111 489.103 233.355 488.609 234.661 488.511C238.523 488.197 242.41 488.602 246.124 489.703C247.393 490.083 248.515 490.842 249.339 491.878C250.163 492.913 250.649 494.176 250.732 495.496C251.124 503.761 254.505 511.603 260.25 517.566C265.995 523.529 273.712 527.208 281.969 527.921C290.226 528.633 298.461 526.329 305.145 521.438C311.829 516.547 316.508 509.4 318.313 501.325C318.569 500.211 319.141 499.194 319.96 498.395C320.779 497.596 321.812 497.049 322.934 496.819L325.847 496.2C326.242 496.14 326.607 495.953 326.885 495.666C327.163 495.38 327.34 495.01 327.387 494.614L327.984 489.31C328.014 489.069 327.995 488.824 327.928 488.591C327.862 488.358 327.749 488.14 327.596 487.951C327.444 487.762 327.255 487.605 327.04 487.491C326.826 487.376 326.591 487.306 326.348 487.283ZM192.62 513.353C186.782 512.698 181.268 510.33 176.778 506.548C172.287 502.765 169.021 497.739 167.392 492.103C165.763 486.467 165.845 480.476 167.626 474.886C169.408 469.297 172.81 464.361 177.402 460.701C181.994 457.042 187.57 454.825 193.424 454.329C199.279 453.834 205.149 455.082 210.292 457.917C215.436 460.753 219.622 465.047 222.321 470.257C225.02 475.467 226.111 481.359 225.455 487.188C224.567 494.991 220.619 502.126 214.474 507.03C208.329 511.933 200.488 514.207 192.668 513.353H192.62ZM230.148 484.518C230.148 483.576 230.148 482.646 230.088 481.717C230.071 481.535 230.096 481.352 230.161 481.181C230.226 481.01 230.33 480.857 230.463 480.733C230.597 480.608 230.758 480.516 230.933 480.464C231.108 480.411 231.293 480.399 231.473 480.429L250.947 482.611C251.131 482.621 251.31 482.674 251.47 482.765C251.63 482.856 251.767 482.982 251.869 483.134C251.972 483.287 252.039 483.461 252.063 483.643C252.087 483.825 252.069 484.01 252.01 484.184C251.747 485.054 251.521 485.948 251.329 486.854C244.693 483.924 237.313 483.108 230.196 484.518H230.148ZM281.49 523.318C275.651 522.664 270.138 520.296 265.647 516.513C261.157 512.731 257.89 507.704 256.261 502.068C254.632 496.432 254.714 490.441 256.496 484.852C258.278 479.262 261.68 474.326 266.272 470.667C270.864 467.008 276.439 464.79 282.294 464.294C288.148 463.799 294.018 465.048 299.162 467.883C304.305 470.718 308.491 475.012 311.19 480.222C313.889 485.432 314.98 491.324 314.325 497.153C313.437 504.952 309.491 512.083 303.352 516.986C297.212 521.889 289.378 524.165 281.562 523.318H281.49Z" fill="#1355FF" stroke="#061237" stroke-linecap="round" stroke-linejoin="round"/>
<path opacity="0.5" d="M172.909 499.24C172.909 499.24 164.623 483.124 175.142 467.926C184.611 454.266 200.956 455.386 207.965 459.904L186.306 485.842C189.087 479.056 192.593 472.589 196.766 466.555C196.766 466.555 179.548 478.75 172.909 499.24Z" fill="white"/>
<path opacity="0.5" d="M261.73 508.333C261.73 508.333 253.455 492.217 263.974 477.031C273.431 463.359 289.789 464.479 296.797 468.997L275.126 494.935C278.195 484.779 285.586 475.648 285.586 475.648C285.586 475.648 268.368 487.843 261.73 508.333Z" fill="white"/>
<path opacity="0.2" d="M181.502 381.968C181.502 381.968 157.348 411.9 155.664 413.783C153.981 415.666 154.47 445.967 150.339 459.616C146.208 473.264 131.951 487.283 100.084 556.372L95.7852 421.769L119.271 328.018L181.502 381.968Z" fill="#061237" fill-opacity="0.7"/>
<path d="M199.233 380.669C199.233 380.669 183.281 307.527 170.673 298.42C163.365 293.151 152.345 291.268 142.721 292.186C135.76 292.842 129.516 294.975 126.005 298.372C117.552 306.466 105.313 311.199 99.3671 316.455C93.421 321.712 94.4478 339.104 91.3076 353.98C88.1674 368.856 82.4003 369.691 81.9347 384.436C81.469 399.181 78.7706 444.43 69.8275 457.459C60.8845 470.487 61.2307 480.274 57.9711 493.219C54.7115 506.164 28.1211 553.726 28.1211 553.726L100.418 564.239C100.418 564.239 105.683 534.725 111.844 510.599C114.758 499.143 117.814 488.88 120.62 483.54C125.955 473.233 130.47 462.523 134.124 451.51C141.718 442.582 145.026 423.582 145.396 407.108L163.891 395.319C178.35 390.432 199.233 380.669 199.233 380.669Z" fill="white"/>
<path opacity="0.4" d="M199.233 380.669C199.233 380.669 183.281 307.527 170.673 298.42C163.366 293.151 152.345 291.268 142.721 292.186C120.202 299.255 114.806 312.331 111.892 315.585C108.012 319.936 104.072 345.254 107.904 359.69C111.737 374.125 109.922 379.572 107.904 386.82C103.391 402.888 120.489 410.386 122.555 416.239C124.62 422.092 125.97 455.456 119.176 466.732C115.594 472.693 107.092 503.065 111.856 510.658C114.77 499.203 117.826 488.94 120.632 483.599C125.967 473.292 130.482 462.583 134.136 451.57C141.73 442.642 145.038 423.641 145.408 407.168L163.903 395.379C178.35 390.432 199.233 380.669 199.233 380.669Z" fill="#1355FF"/>
<path d="M112.24 391.052C112.24 391.052 107.929 386.558 104.371 386.761" stroke="#061237" stroke-linecap="round" stroke-linejoin="round"/>
<path d="M120.073 374.541C120.073 374.541 115.189 365.601 108.133 364.004" stroke="#061237" stroke-linecap="round" stroke-linejoin="round"/>
<path d="M109.266 321.068C109.266 321.068 119.307 324.716 121.289 331.796" stroke="#061237" stroke-linecap="round" stroke-linejoin="round"/>
<path d="M163.891 395.306C163.891 395.306 161.253 392.338 161.109 389.895" stroke="#061237" stroke-linecap="round" stroke-linejoin="round"/>
<path d="M100.419 564.239C100.419 564.239 111.977 500.192 120.621 483.599C125.956 473.292 130.471 462.583 134.125 451.57C141.719 442.642 145.027 423.629 145.397 407.156L163.892 395.367C178.351 390.491 199.234 380.776 199.234 380.776C199.234 380.776 183.282 307.634 170.674 298.527C158.065 289.42 134.436 290.398 125.958 298.527C117.481 306.657 105.266 311.282 99.3202 316.539C93.3741 321.796 94.4009 339.187 91.2607 354.063C88.1205 368.94 82.3535 369.774 81.8878 384.519C81.4221 399.265 78.7237 444.513 69.7806 457.542C60.8376 470.571 61.1838 480.357 57.9242 493.302C54.6646 506.248 28.0742 553.809 28.0742 553.809" stroke="#061237" stroke-linecap="round" stroke-linejoin="round"/>
<path d="M87.4198 156.589L85.2771 137.397C85.2421 137.083 85.3334 136.768 85.5312 136.521C85.7289 136.274 86.0168 136.115 86.3315 136.08L94.4601 135.176L96.866 156.725L88.7374 157.63C88.4248 157.664 88.111 157.575 87.8642 157.38C87.6175 157.185 87.4578 156.901 87.4198 156.589Z" fill="#1355FF" stroke="#061237" stroke-linecap="round" stroke-linejoin="round"/>
<path d="M124.331 105.649L143.555 103.51C143.87 103.475 144.185 103.566 144.433 103.764C144.68 103.961 144.839 104.249 144.874 104.563L145.78 112.678L124.183 115.081L123.275 106.954C123.244 106.642 123.337 106.329 123.535 106.085C123.732 105.841 124.019 105.684 124.331 105.649Z" fill="#1355FF" stroke="#061237" stroke-linecap="round" stroke-linejoin="round"/>
<path d="M150.011 102.828L169.234 100.689C169.549 100.654 169.865 100.745 170.112 100.943C170.36 101.14 170.518 101.428 170.553 101.742L171.459 109.857L149.874 112.259L148.968 104.144C148.933 103.829 149.025 103.514 149.222 103.267C149.42 103.02 149.708 102.862 150.023 102.827L150.011 102.828Z" fill="#1355FF" stroke="#061237" stroke-linecap="round" stroke-linejoin="round"/>
<path d="M115.939 392.505L87.4147 136.83C86.6864 130.313 88.5782 123.773 92.6747 118.646C96.7712 113.52 102.738 110.225 109.265 109.486L481.793 68.0511C485.035 67.6831 488.319 67.9573 491.455 68.858C494.591 69.7586 497.518 71.2681 500.069 73.3C502.62 75.3318 504.745 77.8461 506.321 80.6988C507.897 83.5515 508.894 86.6866 509.255 89.9246L537.78 345.599C538.507 352.128 536.608 358.677 532.499 363.807C528.39 368.938 522.409 372.228 515.87 372.956L143.342 414.379C140.104 414.74 136.826 414.461 133.696 413.557C130.566 412.653 127.645 411.142 125.1 409.111C122.556 407.079 120.437 404.567 118.865 401.718C117.293 398.869 116.299 395.738 115.939 392.505Z" fill="#1355FF" stroke="#061237" stroke-linecap="round" stroke-linejoin="round"/>
<path d="M515.872 369.712L142.627 411.218C137.034 411.838 131.423 410.214 127.028 406.705C122.633 403.196 119.813 398.088 119.189 392.504L90.5331 136.126C89.9094 130.539 91.534 124.935 95.0495 120.544C98.565 116.154 103.683 113.337 109.279 112.714L482.571 71.2204C488.163 70.5978 493.774 72.2184 498.17 75.7258C502.565 79.2332 505.385 84.3401 506.009 89.9231L534.665 346.301C534.972 349.071 534.729 351.873 533.951 354.549C533.172 357.224 531.873 359.721 530.128 361.895C528.383 364.069 526.225 365.879 523.779 367.22C521.333 368.561 518.646 369.408 515.872 369.712Z" fill="white" stroke="#061237" stroke-linecap="round" stroke-linejoin="round"/>
<path d="M111.035 263.625C111.069 263.815 111.064 264.011 111.019 264.199C110.974 264.388 110.892 264.565 110.776 264.721C110.66 264.876 110.513 265.006 110.345 265.103C110.177 265.199 109.991 265.26 109.798 265.282C109.605 265.304 109.41 265.287 109.224 265.231C109.038 265.174 108.866 265.081 108.718 264.956C108.57 264.83 108.449 264.676 108.363 264.503C108.277 264.329 108.227 264.14 108.217 263.946C108.183 263.756 108.189 263.56 108.233 263.371C108.278 263.183 108.361 263.006 108.477 262.85C108.593 262.695 108.739 262.565 108.908 262.468C109.076 262.372 109.262 262.311 109.455 262.288C109.647 262.266 109.843 262.284 110.028 262.34C110.214 262.397 110.386 262.49 110.534 262.615C110.682 262.74 110.803 262.895 110.889 263.068C110.975 263.242 111.025 263.431 111.035 263.625Z" fill="#999999" stroke="#061237" stroke-linecap="round" stroke-linejoin="round"/>
<path d="M113.755 276.296C113.815 276.827 113.717 277.365 113.471 277.841C113.225 278.317 112.843 278.709 112.374 278.968C111.905 279.227 111.37 279.342 110.835 279.297C110.301 279.252 109.792 279.05 109.373 278.717C108.954 278.383 108.643 277.933 108.48 277.423C108.317 276.913 108.309 276.366 108.457 275.852C108.606 275.338 108.903 274.879 109.313 274.533C109.722 274.188 110.225 273.972 110.758 273.912C111.472 273.831 112.189 274.037 112.751 274.484C113.313 274.931 113.674 275.583 113.755 276.296Z" fill="#061237"/>
<path d="M110.259 244.982C110.319 245.514 110.22 246.051 109.975 246.527C109.729 247.003 109.347 247.395 108.878 247.654C108.409 247.913 107.874 248.028 107.339 247.983C106.805 247.938 106.296 247.736 105.877 247.403C105.458 247.069 105.147 246.619 104.984 246.109C104.821 245.599 104.813 245.053 104.961 244.538C105.109 244.024 105.407 243.565 105.817 243.22C106.226 242.874 106.729 242.658 107.262 242.598C107.975 242.521 108.691 242.728 109.252 243.174C109.813 243.621 110.175 244.27 110.259 244.982Z" fill="#061237"/>
<path d="M114.042 285.307C114.099 285.827 113.946 286.348 113.618 286.756C113.29 287.164 112.813 287.425 112.292 287.482C111.771 287.539 111.249 287.387 110.841 287.06C110.432 286.732 110.17 286.256 110.113 285.736C110.085 285.478 110.108 285.218 110.181 284.969C110.253 284.721 110.374 284.489 110.537 284.287C110.865 283.879 111.342 283.617 111.863 283.561C112.383 283.504 112.906 283.656 113.314 283.983C113.723 284.311 113.985 284.787 114.042 285.307Z" fill="#061237"/>
<path d="M133.146 393.781L104.239 135.317C103.934 132.561 104.737 129.796 106.472 127.63C108.207 125.465 110.732 124.075 113.493 123.766L488.851 82.0459C491.613 81.7411 494.383 82.5425 496.555 84.2744C498.726 86.0062 500.12 88.527 500.432 91.284L529.267 349.784C529.42 351.149 529.302 352.531 528.919 353.85C528.537 355.17 527.898 356.401 527.038 357.474C526.179 358.546 525.116 359.44 523.911 360.102C522.706 360.764 521.381 361.183 520.014 361.335L144.656 403.055C141.898 403.349 139.136 402.537 136.977 400.798C134.819 399.059 133.441 396.535 133.146 393.781Z" fill="white"/>
<path opacity="0.3" d="M489.484 80.9626L112.849 122.838C111.563 122.979 110.318 123.372 109.184 123.994C108.051 124.617 107.051 125.457 106.244 126.465C105.436 127.474 104.836 128.633 104.478 129.874C104.12 131.115 104.011 132.414 104.157 133.697L133.147 393.437C133.288 394.721 133.682 395.964 134.305 397.096C134.929 398.227 135.77 399.225 136.78 400.031C137.791 400.837 138.951 401.436 140.194 401.794C141.437 402.152 142.739 402.261 144.024 402.115L520.636 360.239C521.921 360.097 523.167 359.703 524.3 359.08C525.433 358.457 526.432 357.618 527.241 356.61C528.049 355.601 528.65 354.444 529.011 353.203C529.371 351.963 529.483 350.664 529.34 349.38L500.362 89.6404C500.071 87.0502 498.761 84.6812 496.722 83.054C494.682 81.4269 492.079 80.6746 489.484 80.9626Z" fill="#1355FF"/>
<path d="M219.115 145.543H219.032L219.139 160.718L213.05 161.385L206.77 133.599L211.08 133.123L215.856 155.044H215.939L215.533 132.622L219.796 132.157L224.465 154.269H224.548L224.309 131.621L228.178 131.18V159.681L222.292 160.324L219.115 145.543Z" fill="#061237"/>
<path d="M236.153 142.338L242.243 141.67L242.684 145.687L236.607 146.367L237.526 154.604L245.18 153.757L245.622 157.774L233.55 159.121L230.41 130.978L242.481 129.631L242.935 133.648L235.282 134.506L236.153 142.338Z" fill="#061237"/>
<path d="M268.951 155.176L264.474 155.677L263.137 150.611L257.704 151.219L257.513 156.404L253.441 156.857L254.814 128.248L261.298 127.533L268.951 155.176ZM257.847 147.38L262.11 146.903L258.432 132.909H258.349L257.847 147.38Z" fill="#061237"/>
<path d="M280.273 153.924C279.78 152.853 279.512 151.693 279.485 150.515L278.983 146.092C278.697 143.47 277.706 142.612 275.688 142.826L274.16 143.005L275.437 154.46L271.007 154.949L267.867 126.77L274.554 126.031C279.139 125.518 281.347 127.425 281.837 131.776L282.088 133.981C282.41 136.878 281.682 138.833 279.819 139.941V140.025C282.135 140.704 283.091 142.707 283.401 145.639L283.891 149.99C283.94 151.158 284.233 152.303 284.75 153.352L280.273 153.924ZM272.739 130.346L273.706 138.988L275.437 138.797C277.097 138.618 278.016 137.784 277.825 135.531L277.515 132.754C277.288 130.739 276.512 129.94 274.936 130.107L272.739 130.346Z" fill="#061237"/>
<path d="M289.81 136.377L295.888 135.697L296.341 139.714L290.252 140.394L291.171 148.643L298.825 147.784L299.279 151.801L287.171 153.148L284.031 125.005L296.115 123.67L296.556 127.687L288.915 128.533L289.81 136.377Z" fill="#061237"/>
<path d="M312.688 150.314L308.258 150.814L305.082 122.671L309.512 122.17L310.861 134.233L315.9 133.673L314.634 121.622L319.147 121.109L322.288 149.253L317.774 149.753L316.425 137.702L311.398 138.251L312.688 150.314Z" fill="#061237"/>
<path d="M322.324 120.809L326.754 120.32L329.894 148.464L325.464 148.952L322.324 120.809Z" fill="#061237"/>
<path d="M342.37 147.034C341.882 145.962 341.614 144.803 341.582 143.625L341.093 139.203C340.806 136.592 339.803 135.722 337.797 135.949L336.269 136.115L337.547 147.583L333.117 148.071L329.977 119.928L336.663 119.189C341.248 118.676 343.457 120.583 343.946 124.922L344.185 127.14C344.508 130.036 343.791 131.979 341.928 133.1V133.183C344.245 133.863 345.212 135.877 345.51 138.809L346 143.148C346.041 144.318 346.334 145.464 346.86 146.51L342.37 147.034ZM334.848 123.456L335.815 132.098L337.547 131.908C339.194 131.717 340.126 130.882 339.875 128.63L339.564 125.864C339.338 123.85 338.561 123.039 336.985 123.218L334.848 123.456Z" fill="#061237"/>
<path d="M346.168 118.104L350.598 117.615L353.738 145.747L349.308 146.247L346.168 118.104Z" fill="#061237"/>
<path d="M358.705 124.564H358.633L360.902 144.948L356.914 145.389L353.773 117.233L359.337 116.614L365.678 132.956H365.761L363.887 116.113L367.827 115.672L370.967 143.815L366.418 144.316L358.705 124.564Z" fill="#061237"/>
<path d="M379.109 127.068L385.305 126.376L386.308 135.305C386.81 139.799 384.84 142.624 380.494 143.112C376.148 143.601 373.604 141.265 373.103 136.771L371.467 122.133C370.966 117.627 372.936 114.802 377.282 114.325C381.628 113.848 384.171 116.161 384.673 120.667L384.983 123.396L380.792 123.861L380.398 120.81C380.171 118.807 379.204 118.14 377.783 118.295C376.362 118.45 375.574 119.308 375.801 121.322L377.497 136.52C377.724 138.535 378.691 139.155 380.1 139C381.509 138.845 382.309 138.022 382.094 136.008L381.509 130.823L379.503 131.049L379.109 127.068Z" fill="#061237"/>
<path d="M389.735 135.435L388.028 125.327L386.727 113.657L391.156 113.156L392.458 124.898L393.031 135.137L389.735 135.435ZM393.735 136.985L394.213 141.252L389.938 141.729L389.473 137.461L393.735 136.985Z" fill="#061237"/>
<path d="M358.13 356.291L293.534 363.443C290.995 363.727 288.424 363.508 285.97 362.799C283.515 362.09 281.224 360.906 279.228 359.313C277.232 357.72 275.571 355.75 274.338 353.515C273.105 351.281 272.325 348.826 272.042 346.29C271.758 343.756 271.977 341.191 272.687 338.741C273.396 336.291 274.581 334.004 276.176 332.012C277.77 330.019 279.742 328.36 281.979 327.129C284.216 325.897 286.674 325.117 289.212 324.834L353.819 317.682C356.359 317.397 358.93 317.615 361.386 318.323C363.841 319.031 366.132 320.216 368.129 321.809C370.125 323.402 371.787 325.373 373.019 327.608C374.252 329.843 375.031 332.299 375.311 334.835C375.597 337.371 375.379 339.937 374.669 342.389C373.96 344.84 372.774 347.127 371.178 349.12C369.582 351.113 367.608 352.772 365.369 354.003C363.13 355.233 360.67 356.011 358.13 356.291Z" fill="#1355FF" stroke="#061237" stroke-linecap="round" stroke-linejoin="round"/>
<path d="M311.053 350.869L308.152 351.191L307.292 347.937L303.77 348.33L303.639 351.692L301 351.99L301.896 333.418L306.098 332.941L311.053 350.869ZM303.889 345.815L306.66 345.505L304.272 336.422L303.889 345.815Z" fill="white"/>
<path d="M319.409 336.016L319.672 338.4C320.006 341.32 318.764 343.061 315.899 343.382L314.538 343.525L315.302 350.391L312.436 350.713L310.395 332.464L314.633 331.987C317.451 331.653 319.039 333.095 319.409 336.016ZM313.559 334.74L314.251 340.915L315.612 340.76C316.52 340.665 316.973 340.188 316.806 338.889L316.508 336.147C316.365 334.848 315.815 334.478 314.908 334.585L313.559 334.74Z" fill="white"/>
<path d="M329.214 334.919L329.477 337.303C329.799 340.224 328.569 341.964 325.692 342.286L324.342 342.441L325.107 349.295L322.229 349.617L320.199 331.367L324.426 330.89C327.304 330.604 328.88 331.999 329.214 334.919ZM323.363 333.644L324.044 339.818L325.405 339.663C326.324 339.568 326.766 339.091 326.599 337.792L326.301 335.05C326.145 333.751 325.608 333.393 324.689 333.489L323.363 333.644Z" fill="white"/>
<path d="M330.035 330.257L332.913 329.936L334.656 345.575L339.432 345.05L339.719 347.661L332.125 348.507L330.035 330.257Z" fill="white"/>
<path d="M341.319 341.333L336.328 329.532L339.337 329.199L342.429 337.28L343.623 328.722L346.37 328.424L344.101 341.023L344.77 347.079L341.904 347.389L341.319 341.333Z" fill="white"/>
<path d="M366.662 373.265L289.008 381.906L289.275 384.299L366.929 375.658L366.662 373.265Z" fill="#999999" stroke="#061237" stroke-linecap="round" stroke-linejoin="round"/>
<path d="M478.381 290.599L169.458 324.941C169.458 324.941 156.037 296.142 164.156 277.451C172.276 258.761 196.86 269.417 207.272 252.074C217.683 234.73 205.624 223.239 217.086 199.482C228.549 175.725 261.396 163.054 285.92 173.472C310.445 183.89 318.743 199.601 334.337 195.203C349.931 190.804 358.814 170.587 389.715 172.066C420.616 173.544 427.254 216.742 425.463 238.055C423.672 259.369 485.283 240.344 478.381 290.599Z" fill="white"/>
<path d="M386.059 197.29L385.772 194.715L366.43 196.872L367.003 202.093L368.042 211.367L387.384 209.222L386.059 197.29Z" fill="white"/>
<path opacity="0.2" d="M368.059 211.192L380.246 209.836L378.648 195.525L366.461 196.881L368.059 211.192Z" fill="#061237"/>
<path d="M386.059 197.29L385.772 194.715L366.43 196.872L367.003 202.093L368.042 211.367L387.384 209.222L386.059 197.29Z" stroke="#061237" stroke-linecap="round" stroke-linejoin="round"/>
<path d="M378.668 195.502L378.811 196.777" stroke="#061237" stroke-linecap="round" stroke-linejoin="round"/>
<path d="M369.154 227.043L366.945 207.232L377.297 199.412L387.554 198.268L390.467 224.468L369.154 227.043Z" fill="#061237"/>
<path opacity="0.2" d="M369.154 227.042L380.676 225.766L377.727 199.363L366.945 207.231L369.154 227.042Z" fill="#061237"/>
<path d="M369.154 227.043L366.945 207.232L377.297 199.412L387.554 198.268L390.467 224.468L369.154 227.043Z" stroke="#061237" stroke-linecap="round" stroke-linejoin="round"/>
<path opacity="0.2" d="M378.215 203.75L378.824 209.269" stroke="white" stroke-linecap="round" stroke-linejoin="round"/>
<path opacity="0.2" d="M379.195 212.561L380.497 224.218" stroke="white" stroke-linecap="round" stroke-linejoin="round"/>
<path d="M289.88 286.151L286.106 286.571C285.533 286.635 284.958 286.469 284.508 286.109C284.058 285.75 283.769 285.227 283.706 284.655L282.794 276.493L290.875 275.594L291.789 283.78C291.846 284.346 291.678 284.912 291.321 285.356C290.963 285.799 290.446 286.085 289.88 286.151Z" fill="#999999" stroke="#061237" stroke-linecap="round" stroke-linejoin="round"/>
<path d="M286.765 298.285L291.82 297.723L290.523 286.101L285.468 286.663L286.765 298.285Z" fill="#757575" stroke="#061237" stroke-linecap="round" stroke-linejoin="round"/>
<path d="M281.798 276.606L292.198 275.438L295.051 270.67L277.953 272.577L281.798 276.606Z" fill="#757575" stroke="#061237" stroke-linecap="round" stroke-linejoin="round"/>
<path d="M311.052 257.998L296.724 259.584L291.948 244.576H289.918L294.694 260.203C294.297 260.251 293.934 260.453 293.684 260.765C293.434 261.077 293.316 261.475 293.357 261.872L293.703 264.924C293.826 265.921 294.337 266.83 295.125 267.455C295.914 268.079 296.917 268.369 297.918 268.261L310.192 266.903C310.666 266.846 311.098 266.605 311.395 266.232C311.692 265.86 311.831 265.385 311.78 264.912L311.052 257.998Z" fill="#999999" stroke="#061237" stroke-linecap="round" stroke-linejoin="round"/>
<path d="M312.247 265.508L311.519 265.579C311.022 265.636 310.522 265.511 310.109 265.229C309.697 264.946 309.4 264.525 309.274 264.042L305.083 247.568C304.881 246.796 304.433 246.111 303.806 245.616C303.179 245.122 302.408 244.844 301.609 244.826L289.872 244.528C289.436 244.514 289.02 244.343 288.7 244.048C288.38 243.752 288.177 243.352 288.129 242.919C288.075 242.445 288.212 241.969 288.51 241.596C288.808 241.222 289.242 240.982 289.717 240.928L291.185 240.773L302.827 241.262C304.215 241.317 305.548 241.822 306.625 242.699C307.702 243.576 308.464 244.779 308.797 246.126L313.226 264.101C313.257 264.258 313.256 264.419 313.224 264.576C313.191 264.732 313.127 264.88 313.035 265.012C312.944 265.143 312.827 265.254 312.692 265.34C312.557 265.425 312.405 265.482 312.247 265.508Z" fill="#BFBFBF"/>
<path d="M312.247 265.508L311.519 265.579C311.022 265.636 310.522 265.511 310.109 265.229C309.697 264.946 309.4 264.525 309.274 264.042L305.083 247.568C304.881 246.796 304.433 246.111 303.806 245.616C303.179 245.122 302.408 244.844 301.609 244.826L289.872 244.528C289.436 244.514 289.02 244.343 288.7 244.048C288.38 243.752 288.177 243.352 288.129 242.919V242.919C288.075 242.445 288.212 241.969 288.51 241.596C288.808 241.222 289.242 240.982 289.717 240.928L291.185 240.773L302.827 241.262C304.215 241.317 305.548 241.822 306.625 242.699C307.702 243.576 308.464 244.779 308.797 246.126L313.226 264.101C313.257 264.258 313.256 264.419 313.224 264.576C313.191 264.732 313.127 264.88 313.035 265.012C312.944 265.143 312.827 265.254 312.692 265.34C312.557 265.425 312.405 265.482 312.247 265.508" stroke="#061237" stroke-linecap="round" stroke-linejoin="round"/>
<path d="M241.333 213.488L257.691 266.842L294.43 262.754L295.218 256.937L286.24 227.363L280.27 207.492C279.887 206.243 279.084 205.164 277.996 204.438C276.908 203.713 275.602 203.385 274.3 203.511L245.799 206.634C244.946 206.723 244.127 207.02 243.416 207.498C242.704 207.976 242.12 208.62 241.715 209.375C241.383 210.002 241.178 210.688 241.113 211.394C241.047 212.099 241.122 212.811 241.333 213.488Z" fill="#1355FF"/>
<path opacity="0.2" d="M241.336 213.489L257.693 266.844L294.433 262.755L295.221 256.938L286.242 227.364L255.58 230.774L249.801 211.952C249.519 211.028 248.924 210.231 248.118 209.696C247.312 209.161 246.346 208.922 245.383 209.019L241.801 209.413C241.112 210.657 240.945 212.122 241.336 213.489Z" fill="#061237"/>
<path d="M241.333 213.488L257.691 266.842L294.43 262.754L295.218 256.937L286.24 227.363L280.27 207.492C279.887 206.243 279.084 205.164 277.996 204.438C276.908 203.713 275.602 203.385 274.3 203.511L245.799 206.634C244.946 206.723 244.127 207.02 243.416 207.498C242.704 207.976 242.12 208.62 241.715 209.375C241.383 210.002 241.178 210.688 241.113 211.394C241.047 212.099 241.122 212.811 241.333 213.488V213.488Z" stroke="#061237" stroke-linecap="round" stroke-linejoin="round"/>
<path d="M270.337 308.362C277.871 303.355 301.237 300.757 309.739 303.987L313.321 302.545C304.282 297.884 291.829 297.693 291.829 297.693L286.348 298.301C286.348 298.301 274.301 301.21 266.504 307.742L270.337 308.362Z" fill="#999999" stroke="#061237" stroke-linecap="round" stroke-linejoin="round"/>
<path d="M309.477 306.169C309.57 307.008 309.994 307.776 310.654 308.304C311.315 308.831 312.158 309.075 312.999 308.982C313.84 308.889 314.609 308.466 315.137 307.806C315.666 307.147 315.91 306.305 315.817 305.465C315.77 305.05 315.643 304.647 315.441 304.281C315.239 303.915 314.966 303.592 314.639 303.331C314.312 303.069 313.937 302.875 313.534 302.759C313.132 302.642 312.711 302.606 312.294 302.652C311.878 302.698 311.475 302.826 311.108 303.028C310.741 303.229 310.418 303.501 310.156 303.828C309.894 304.154 309.7 304.529 309.583 304.931C309.466 305.332 309.43 305.753 309.477 306.169Z" fill="#BFBFBF" stroke="#061237" stroke-linecap="round" stroke-linejoin="round"/>
<path d="M264.689 311.151C264.771 311.772 265.034 312.356 265.446 312.829C265.858 313.301 266.4 313.642 267.005 313.808C267.61 313.974 268.251 313.958 268.847 313.763C269.443 313.567 269.968 313.2 270.356 312.707C270.744 312.215 270.978 311.619 271.028 310.994C271.079 310.37 270.943 309.745 270.639 309.197C270.335 308.649 269.875 308.202 269.318 307.914C268.761 307.626 268.131 307.508 267.507 307.575C267.086 307.622 266.678 307.753 266.308 307.959C265.937 308.165 265.611 308.442 265.349 308.775C265.087 309.107 264.893 309.489 264.78 309.897C264.667 310.305 264.636 310.731 264.689 311.151Z" fill="#BFBFBF" stroke="#061237" stroke-linecap="round" stroke-linejoin="round"/>
<path d="M270.945 274.925L306.896 270.932C308.439 270.76 309.932 270.286 311.291 269.537C312.65 268.789 313.848 267.78 314.816 266.569C315.784 265.358 316.503 263.968 316.933 262.479C317.363 260.99 317.494 259.431 317.32 257.891C317.272 257.432 317.134 256.987 316.912 256.581C316.691 256.176 316.391 255.819 316.03 255.53C315.668 255.242 315.253 255.028 314.809 254.901C314.364 254.775 313.898 254.737 313.439 254.792L260.903 260.633C260.449 260.683 260.009 260.823 259.609 261.043C259.209 261.263 258.856 261.56 258.571 261.917C258.286 262.273 258.075 262.682 257.948 263.121C257.822 263.559 257.783 264.018 257.835 264.471C257.999 266.02 258.47 267.522 259.22 268.888C259.97 270.254 260.984 271.459 262.203 272.431C263.423 273.403 264.823 274.124 266.324 274.552C267.824 274.981 269.395 275.107 270.945 274.925Z" fill="#1355FF"/>
<path opacity="0.2" d="M257.871 264.267L257.978 265.233C258.305 268.15 259.779 270.819 262.077 272.652C264.374 274.485 267.306 275.332 270.229 275.007L307.601 270.847C309.048 270.689 310.45 270.246 311.725 269.546C313.001 268.846 314.126 267.901 315.036 266.766C315.945 265.631 316.621 264.328 317.026 262.932C317.43 261.536 317.554 260.073 317.392 258.629L317.284 257.652C317.219 257.031 316.975 256.442 316.58 255.957C316.186 255.472 315.659 255.113 315.063 254.922L315.266 256.722C315.38 257.763 315.076 258.807 314.42 259.625C313.765 260.443 312.811 260.968 311.768 261.085L278.611 264.78C277.566 264.894 276.519 264.59 275.698 263.936C274.877 263.282 274.349 262.329 274.229 261.287L274.002 259.177L260.772 260.644C259.907 260.742 259.117 261.179 258.573 261.858C258.029 262.537 257.777 263.403 257.871 264.267Z" fill="#061237"/>
<path d="M270.945 274.925L306.896 270.932C308.439 270.76 309.932 270.286 311.291 269.537C312.65 268.789 313.848 267.78 314.816 266.569C315.784 265.358 316.503 263.968 316.933 262.479C317.363 260.99 317.494 259.431 317.32 257.891V257.891C317.272 257.432 317.134 256.987 316.912 256.581C316.691 256.176 316.391 255.819 316.03 255.53C315.668 255.242 315.253 255.028 314.809 254.901C314.364 254.775 313.898 254.737 313.439 254.792L260.903 260.633C260.449 260.683 260.009 260.823 259.609 261.043C259.209 261.263 258.856 261.56 258.571 261.917C258.286 262.273 258.075 262.682 257.948 263.121C257.822 263.559 257.783 264.018 257.835 264.471C257.999 266.02 258.47 267.522 259.22 268.888C259.97 270.254 260.984 271.459 262.203 272.431C263.423 273.403 264.823 274.124 266.324 274.552C267.824 274.981 269.395 275.107 270.945 274.925V274.925Z" stroke="#061237" stroke-linecap="round" stroke-linejoin="round"/>
<path d="M270.848 262.468L256.592 264.053L251.744 249.046L249.727 248.986L254.503 264.626C254.305 264.646 254.113 264.706 253.938 264.801C253.763 264.897 253.609 265.026 253.485 265.181C253.36 265.336 253.268 265.515 253.213 265.706C253.158 265.897 253.142 266.097 253.165 266.294L253.5 269.346C253.617 270.354 254.128 271.275 254.921 271.909C255.715 272.543 256.727 272.839 257.738 272.731L270.013 271.36C270.247 271.335 270.475 271.264 270.682 271.151C270.889 271.037 271.071 270.885 271.219 270.701C271.366 270.517 271.476 270.306 271.542 270.079C271.607 269.853 271.627 269.616 271.601 269.382L270.848 262.468Z" fill="#999999" stroke="#061237" stroke-linecap="round" stroke-linejoin="round"/>
<path d="M272.106 269.967L271.365 270.05C270.868 270.105 270.368 269.979 269.958 269.694C269.547 269.409 269.254 268.985 269.133 268.501L264.942 252.039C264.736 251.268 264.287 250.583 263.662 250.087C263.036 249.591 262.266 249.31 261.467 249.285L249.73 248.987C249.294 248.976 248.877 248.808 248.554 248.515C248.232 248.222 248.026 247.822 247.975 247.39C247.925 246.915 248.065 246.439 248.364 246.066C248.664 245.693 249.099 245.453 249.575 245.399L251.032 245.232L262.685 245.721C264.075 245.779 265.408 246.286 266.484 247.165C267.561 248.044 268.323 249.248 268.655 250.596L273.073 268.62C273.113 268.776 273.119 268.938 273.091 269.097C273.063 269.255 273.001 269.406 272.909 269.538C272.817 269.67 272.698 269.781 272.559 269.864C272.421 269.946 272.266 269.997 272.106 270.014" fill="#BFBFBF"/>
<path d="M272.106 269.967L271.365 270.05C270.868 270.105 270.368 269.979 269.958 269.694C269.547 269.409 269.254 268.985 269.133 268.501L264.942 252.039C264.736 251.268 264.287 250.583 263.662 250.087C263.036 249.591 262.266 249.31 261.467 249.285L249.73 248.987C249.294 248.976 248.877 248.808 248.554 248.515C248.232 248.222 248.026 247.822 247.975 247.39V247.39C247.925 246.915 248.065 246.439 248.364 246.066C248.664 245.693 249.099 245.453 249.575 245.399L251.032 245.232L262.685 245.721C264.075 245.779 265.408 246.286 266.484 247.165C267.561 248.044 268.323 249.248 268.655 250.596L273.073 268.62C273.113 268.776 273.119 268.938 273.091 269.097C273.063 269.255 273.001 269.406 272.909 269.538C272.817 269.67 272.698 269.781 272.559 269.864C272.421 269.946 272.266 269.997 272.106 270.014V270.014" stroke="#061237" stroke-linecap="round" stroke-linejoin="round"/>
<path d="M297.621 232.622L284.332 234.052L284.416 234.767C284.429 234.942 284.477 235.111 284.558 235.266C284.638 235.421 284.749 235.559 284.884 235.67C285.019 235.781 285.175 235.864 285.343 235.914C285.51 235.964 285.687 235.979 285.86 235.959H286.207L329.609 231.132C329.72 231.12 329.828 231.086 329.927 231.032C330.025 230.978 330.112 230.905 330.182 230.818C330.252 230.73 330.304 230.63 330.334 230.522C330.365 230.414 330.374 230.301 330.361 230.19L330.229 228.998L297.621 232.622Z" fill="#999999" stroke="#061237" stroke-linecap="round" stroke-linejoin="round"/>
<path d="M337.99 205.753L335.829 227.21C335.785 227.657 335.587 228.076 335.27 228.395C334.952 228.715 334.534 228.915 334.086 228.962L300.594 232.693C300.395 232.714 300.194 232.69 300.006 232.623C299.817 232.556 299.646 232.447 299.505 232.305C299.364 232.164 299.257 231.992 299.191 231.803C299.126 231.614 299.103 231.413 299.126 231.215L301.514 209.759C301.563 209.317 301.761 208.905 302.075 208.591C302.39 208.277 302.803 208.079 303.245 208.03L336.522 204.251C336.724 204.227 336.928 204.25 337.12 204.318C337.311 204.385 337.485 204.496 337.627 204.641C337.769 204.786 337.875 204.962 337.939 205.155C338.002 205.348 338.019 205.553 337.99 205.753Z" fill="#BFBFBF" stroke="#061237" stroke-linecap="round" stroke-linejoin="round"/>
<path d="M319.577 215.968L322.168 215.682L323.159 217.923L321.559 220.438L318.968 220.724L317.977 218.495L319.577 215.968Z" fill="white" stroke="#061237" stroke-linecap="round" stroke-linejoin="round"/>
<path d="M371.11 199.315L370.823 196.729L351.48 198.898L352.066 204.119L353.092 213.393L372.435 211.235L371.11 199.315Z" fill="white"/>
<path opacity="0.2" d="M352.984 212.525L365.23 211.162L363.711 197.55L351.464 198.913L352.984 212.525Z" fill="#061237"/>
<path d="M371.11 199.315L370.823 196.729L351.48 198.898L352.066 204.119L353.092 213.393L372.435 211.235L371.11 199.315Z" stroke="#061237" stroke-linecap="round" stroke-linejoin="round"/>
<path d="M363.719 197.516L363.862 198.803" stroke="#061237" stroke-linecap="round" stroke-linejoin="round"/>
<path d="M354.205 229.068L351.996 209.245L362.348 201.425L372.605 200.293L375.53 226.493L354.205 229.068Z" fill="#1355FF"/>
<path opacity="0.2" d="M362.348 201.426L365.273 227.734L354.193 228.961L351.996 209.245L362.348 201.426Z" fill="#061237"/>
<path d="M354.205 229.068L351.996 209.245L362.348 201.425L372.605 200.293L375.53 226.493L354.205 229.068Z" stroke="#061237" stroke-linecap="round" stroke-linejoin="round"/>
<path d="M363.266 205.764L363.886 211.283" stroke="#061237" stroke-linecap="round" stroke-linejoin="round"/>
<path d="M364.246 214.586L365.548 226.244" stroke="#061237" stroke-linecap="round" stroke-linejoin="round"/>
<path d="M349.376 232.935L344.285 233.502L352.224 304.606L357.314 304.04L349.376 232.935Z" fill="#1355FF"/>
<path opacity="0.2" d="M349.376 232.937L344.285 233.504L352.224 304.608L357.314 304.042L349.376 232.937Z" fill="#061237"/>
<path d="M349.376 232.935L344.285 233.502L352.224 304.606L357.314 304.04L349.376 232.935Z" stroke="#061237" stroke-linecap="round" stroke-linejoin="round"/>
<path d="M318.133 236.435L393.785 228.02L401.713 299.123L396.626 299.683L389.164 232.752L318.598 240.607L318.133 236.435Z" fill="#1355FF" stroke="#061237" stroke-linecap="round" stroke-linejoin="round"/>
<path d="M378.873 225.672L268.082 237.997L268.512 241.919L395.924 227.758L395.482 223.824L386.181 224.861L378.873 225.672Z" fill="#1355FF"/>
<path opacity="0.6" d="M378.873 225.672L268.082 237.997L268.512 241.919L395.924 227.758L395.482 223.824L386.181 224.861L378.873 225.672Z" fill="white"/>
<path d="M378.873 225.672L268.082 237.997L268.512 241.919L395.924 227.758L395.482 223.824L386.181 224.861L378.873 225.672Z" stroke="#061237" stroke-linecap="round" stroke-linejoin="round"/>
<path d="M278.6 312.806L270.66 241.702L321.286 236.076L329.226 307.18L324.127 307.74L316.665 240.82L276.212 245.314L283.687 312.246L278.6 312.806Z" fill="#1355FF"/>
<path opacity="0.2" d="M278.6 312.806L270.66 241.702L321.286 236.076L329.226 307.18L324.127 307.74L316.665 240.82L276.212 245.314L283.687 312.246L278.6 312.806Z" fill="white"/>
<path d="M278.6 312.806L270.66 241.702L321.286 236.076L329.226 307.18L324.127 307.74L316.665 240.82L276.212 245.314L283.687 312.246L278.6 312.806Z" stroke="#061237" stroke-linecap="round" stroke-linejoin="round"/>
<path d="M399.062 246.557C394.995 243.312 390.072 241.318 384.891 240.817C379.709 240.315 374.494 241.328 369.879 243.731C365.263 246.135 361.447 249.826 358.895 254.355C356.343 258.884 355.164 264.056 355.502 269.242C355.84 274.428 357.681 279.404 360.8 283.564C363.919 287.724 368.183 290.89 373.071 292.676C377.96 294.462 383.263 294.79 388.335 293.622C393.407 292.454 398.03 289.839 401.641 286.096L405.688 289.326L408.769 285.476L404.721 282.245C408.402 276.662 409.862 269.908 408.815 263.307C407.768 256.705 404.29 250.732 399.062 246.557ZM400.602 282.15C397.69 285.767 393.769 288.441 389.335 289.832C384.901 291.224 380.153 291.272 375.691 289.97C371.23 288.667 367.256 286.073 364.272 282.516C361.287 278.958 359.427 274.597 358.926 269.983C358.424 265.37 359.305 260.712 361.456 256.598C363.607 252.485 366.932 249.1 371.009 246.873C375.087 244.646 379.735 243.677 384.365 244.087C388.995 244.497 393.399 246.27 397.02 249.179C399.425 251.108 401.426 253.491 402.909 256.193C404.391 258.894 405.325 261.861 405.657 264.923C405.99 267.986 405.715 271.083 404.847 274.039C403.98 276.995 402.537 279.751 400.602 282.15Z" fill="#757575" stroke="#061237" stroke-linecap="round" stroke-linejoin="round"/>
<path d="M439.492 313.153C439.184 313.541 438.802 313.864 438.369 314.104C437.935 314.344 437.458 314.496 436.965 314.552C436.473 314.607 435.974 314.565 435.498 314.427C435.022 314.289 434.577 314.059 434.191 313.749L404.77 290.266C404.687 290.2 404.618 290.118 404.567 290.025C404.516 289.932 404.484 289.83 404.473 289.725C404.462 289.62 404.472 289.513 404.503 289.411C404.533 289.31 404.584 289.216 404.651 289.134L408.352 284.509C408.486 284.342 408.68 284.235 408.893 284.21C409.105 284.186 409.319 284.246 409.487 284.378L438.907 307.86C439.687 308.485 440.187 309.393 440.297 310.386C440.406 311.378 440.117 312.373 439.492 313.153Z" fill="#999999" stroke="#061237" stroke-linecap="round" stroke-linejoin="round"/>
<path d="M241.895 316.895L238.444 317.276L222.91 256.925L226.241 256.066L241.895 316.895Z" fill="#999999" stroke="#061237" stroke-linecap="round" stroke-linejoin="round"/>
<path d="M239.703 229.081L198.43 239.668L205.077 265.494L246.35 254.907L239.703 229.081Z" fill="#061237"/>
<path d="M212.283 253.42L212.546 254.434C212.651 254.675 212.699 254.938 212.687 255.201C212.674 255.465 212.601 255.722 212.473 255.952C212.345 256.183 212.165 256.381 211.948 256.531C211.73 256.681 211.482 256.779 211.22 256.818L210.635 256.961L211.387 259.881L210.193 260.203L208.188 252.431L209.99 251.966C210.237 251.878 210.501 251.847 210.761 251.876C211.022 251.905 211.272 251.993 211.493 252.133C211.714 252.273 211.901 252.462 212.037 252.685C212.174 252.908 212.258 253.16 212.283 253.42ZM209.68 253.23L210.349 255.852L210.934 255.709C211.316 255.602 211.483 255.375 211.34 254.815L211.041 253.623C210.898 253.063 210.647 252.944 210.253 253.039L209.68 253.23Z" fill="#1355FF"/>
<path d="M212.738 253.242C212.653 252.992 212.621 252.727 212.644 252.464C212.666 252.201 212.743 251.946 212.869 251.714C212.995 251.481 213.168 251.278 213.376 251.115C213.584 250.953 213.824 250.835 214.08 250.769C214.336 250.704 214.603 250.691 214.864 250.733C215.125 250.775 215.375 250.87 215.597 251.013C215.82 251.155 216.01 251.342 216.157 251.562C216.304 251.781 216.404 252.029 216.451 252.288L217.49 256.329C217.574 256.579 217.606 256.844 217.584 257.107C217.561 257.37 217.484 257.626 217.358 257.858C217.232 258.09 217.06 258.293 216.851 258.456C216.643 258.618 216.403 258.736 216.147 258.802C215.891 258.867 215.624 258.88 215.363 258.838C215.102 258.796 214.853 258.701 214.63 258.558C214.408 258.416 214.217 258.229 214.07 258.009C213.923 257.79 213.823 257.543 213.776 257.283L212.738 253.242ZM215.018 257.044C215.162 257.605 215.46 257.748 215.854 257.652C216.248 257.557 216.427 257.271 216.296 256.723L215.209 252.527C215.066 251.966 214.767 251.823 214.373 251.919C213.979 252.014 213.8 252.3 213.944 252.849L215.018 257.044Z" fill="#1355FF"/>
<path d="M218.387 249.714C218.637 249.628 218.903 249.6 219.166 249.632C219.428 249.664 219.68 249.755 219.902 249.899C220.124 250.042 220.311 250.235 220.448 250.461C220.584 250.687 220.667 250.941 220.691 251.204L220.751 251.443L219.557 251.741L219.473 251.419C219.33 250.87 219.043 250.715 218.661 250.811C218.279 250.906 218.1 251.18 218.243 251.741C218.387 252.301 218.745 252.658 219.724 253.147C220.918 253.791 221.467 254.339 221.694 255.245C221.815 255.496 221.879 255.77 221.882 256.048C221.884 256.327 221.825 256.602 221.708 256.855C221.59 257.108 221.419 257.331 221.205 257.51C220.991 257.688 220.74 257.817 220.47 257.887C220.2 257.957 219.918 257.967 219.644 257.915C219.37 257.863 219.111 257.751 218.886 257.587C218.66 257.424 218.474 257.212 218.34 256.968C218.206 256.724 218.128 256.453 218.112 256.175L217.981 255.698L219.175 255.4L219.318 255.96C219.461 256.509 219.76 256.652 220.154 256.544C220.548 256.437 220.727 256.187 220.584 255.627C220.44 255.066 220.094 254.709 219.115 254.208C217.861 253.576 217.372 253.016 217.145 252.122C217.04 251.885 216.989 251.626 216.997 251.367C217.005 251.107 217.07 250.853 217.189 250.622C217.309 250.391 217.478 250.19 217.685 250.033C217.892 249.875 218.132 249.767 218.387 249.714Z" fill="#1355FF"/>
<path d="M220.93 249.154L222.124 248.844L224.13 256.616L222.936 256.926L220.93 249.154Z" fill="#1355FF"/>
<path d="M222.695 248.702L226.468 247.736L226.755 248.845L225.477 249.179L227.197 255.83L226.003 256.152L224.248 249.548L222.97 249.87L222.695 248.702Z" fill="#1355FF"/>
<path d="M226.996 247.593L228.19 247.283L230.184 255.055L228.99 255.365L226.996 247.593Z" fill="#1355FF"/>
<path d="M229.492 248.939C229.407 248.689 229.375 248.424 229.398 248.161C229.42 247.898 229.497 247.643 229.623 247.411C229.749 247.179 229.922 246.975 230.13 246.813C230.338 246.65 230.578 246.533 230.834 246.467C231.09 246.401 231.357 246.389 231.618 246.431C231.879 246.472 232.129 246.568 232.351 246.71C232.574 246.853 232.764 247.04 232.911 247.259C233.058 247.478 233.158 247.726 233.205 247.986L234.244 252.026C234.328 252.277 234.36 252.541 234.338 252.804C234.315 253.067 234.238 253.323 234.112 253.555C233.986 253.787 233.814 253.99 233.605 254.153C233.397 254.315 233.157 254.433 232.901 254.499C232.645 254.565 232.378 254.577 232.117 254.535C231.856 254.493 231.607 254.398 231.384 254.255C231.162 254.113 230.971 253.926 230.824 253.707C230.677 253.487 230.577 253.24 230.53 252.98L229.492 248.939ZM231.772 252.754C231.915 253.302 232.214 253.445 232.608 253.35C233.002 253.254 233.181 252.98 233.038 252.42L231.963 248.224C231.82 247.676 231.521 247.521 231.127 247.628C230.733 247.735 230.554 247.997 230.698 248.558L231.772 252.754Z" fill="#1355FF"/>
<path d="M235.172 247.783L236.616 253.41L235.518 253.696L233.5 245.972L235.04 245.578L237.428 249.917L236.234 245.268L237.321 244.994L239.327 252.766L238.061 253.088L235.172 247.783Z" fill="#1355FF"/>
<path d="M217.37 245.543L217.8 245.436C218.182 245.341 218.457 245.114 218.302 244.518L216.773 238.558L217.967 238.236L219.472 244.077C219.866 245.627 219.138 246.247 218.218 246.461L217.621 246.592L217.37 245.543Z" fill="#1355FF"/>
<path d="M219.222 240.009C219.138 239.759 219.106 239.495 219.128 239.232C219.151 238.969 219.227 238.713 219.353 238.481C219.479 238.249 219.652 238.045 219.86 237.883C220.069 237.721 220.308 237.603 220.565 237.537C220.821 237.471 221.087 237.459 221.348 237.501C221.61 237.543 221.859 237.638 222.082 237.78C222.304 237.923 222.495 238.11 222.642 238.329C222.789 238.549 222.889 238.796 222.935 239.056L223.974 243.097C224.059 243.347 224.091 243.612 224.068 243.875C224.045 244.138 223.969 244.393 223.843 244.625C223.717 244.857 223.544 245.061 223.336 245.223C223.127 245.386 222.888 245.503 222.632 245.569C222.376 245.635 222.109 245.647 221.848 245.605C221.587 245.563 221.337 245.468 221.115 245.326C220.892 245.183 220.701 244.996 220.555 244.777C220.408 244.557 220.308 244.31 220.261 244.05L219.222 240.009ZM221.503 243.812C221.646 244.372 221.944 244.515 222.326 244.42C222.709 244.325 222.912 244.038 222.768 243.49L221.694 239.294C221.55 238.734 221.252 238.591 220.858 238.686C220.464 238.782 220.273 239.068 220.416 239.616L221.503 243.812Z" fill="#1355FF"/>
<path d="M227.365 237.781L227.437 238.055C227.56 238.352 227.588 238.68 227.518 238.993C227.447 239.307 227.281 239.591 227.043 239.807C227.771 239.903 228.237 240.403 228.38 241.226L228.547 241.858C228.656 242.103 228.705 242.371 228.69 242.64C228.676 242.908 228.598 243.169 228.463 243.401C228.327 243.634 228.139 243.831 227.913 243.977C227.687 244.123 227.43 244.214 227.162 244.242L225.24 244.73L223.246 236.97L225.085 236.434C225.322 236.328 225.581 236.281 225.84 236.296C226.099 236.31 226.351 236.387 226.574 236.519C226.797 236.651 226.986 236.834 227.123 237.054C227.261 237.273 227.344 237.523 227.365 237.781ZM224.751 237.781L225.276 239.843L225.753 239.712C226.219 239.605 226.446 239.33 226.279 238.711L226.171 238.27C226.028 237.721 225.777 237.519 225.336 237.638L224.751 237.781ZM225.562 240.952L226.183 243.336L226.876 243.157C227.294 243.05 227.461 242.799 227.318 242.227L227.139 241.548C226.959 240.832 226.661 240.666 226.112 240.809L225.562 240.952Z" fill="#1355FF"/>
<path d="M480.051 168.012L397.656 174.211C396.279 174.322 395.021 174.795 394.155 175.527C393.29 176.26 392.885 177.193 393.028 178.126L396.266 197.746C396.429 198.675 397.126 199.523 398.205 200.109C399.285 200.694 400.66 200.969 402.037 200.875L412.33 200.102L405.292 212L419.086 199.626L484.344 194.712C485.721 194.601 486.979 194.129 487.845 193.396C488.71 192.664 489.115 191.73 488.972 190.797L485.734 171.165C485.579 170.243 484.899 169.399 483.838 168.81C482.777 168.221 481.419 167.935 480.051 168.012Z" fill="white" stroke="#061237" stroke-linecap="round" stroke-linejoin="round"/>
<path d="M153.945 326.67L494.116 288.848" stroke="#061237" stroke-linecap="round" stroke-linejoin="round"/>
<path d="M156.416 321.89C154.893 321.195 153.225 320.871 151.552 320.946C149.879 321.021 148.248 321.491 146.792 322.319C144.276 323.83 142.306 326.101 141.169 328.804C137.193 337.076 126.244 356.017 124.333 361.453C122.423 366.889 118.363 381.92 113.862 388.428C109.36 394.937 107.199 404.508 107.199 404.508L110.781 495.34C112.68 482.061 119.139 466.732 119.139 466.732C125.345 463.041 130.497 457.82 134.1 451.569C135.184 450.28 136.144 448.891 136.966 447.421C143.58 435.751 145.909 415.308 145.324 399.585C144.715 381.765 150.028 373.361 158.458 357.305C166.887 341.248 162.696 324.989 156.416 321.89Z" fill="white"/>
<path opacity="0.4" d="M156.418 321.89C154.889 321.215 153.225 320.903 151.555 320.978C149.886 321.052 148.256 321.511 146.794 322.319C151.988 323.404 158.853 325.633 157.54 329.626C155.486 335.932 147.857 327.242 144.478 330.401C141.099 333.56 129.182 351.44 137.827 358.473C146.472 365.506 144.621 378.284 139.236 382.158C133.851 386.032 137.97 394.293 140.537 407.512C142.102 415.511 139.343 433.999 136.955 447.361C143.57 435.692 145.898 415.249 145.313 399.526C144.704 381.705 150.018 373.302 158.447 357.245C166.877 341.189 162.686 324.775 156.418 321.89Z" fill="#1355FF"/>
<path d="M110.793 495.28C112.692 482.013 119.151 466.672 119.151 466.672C125.359 462.979 130.514 457.759 134.124 451.51C142.9 441.175 145.956 417.335 145.348 399.526C144.739 381.717 150.124 373.361 158.482 357.233C166.84 341.105 163.365 325.18 156.392 321.89C151.532 319.601 145.133 320.531 141.145 328.804C137.157 337.076 126.22 356.017 124.309 361.441C122.399 366.865 118.339 381.92 113.838 388.44C109.336 394.96 107.199 404.508 107.199 404.508" stroke="#061237" stroke-linecap="round" stroke-linejoin="round"/>
<path d="M131.953 362.598C131.953 362.598 139.272 362.824 142.699 365.363" stroke="#061237" stroke-linecap="round" stroke-linejoin="round"/>
<path d="M104.419 402.768C104.419 402.768 102.807 399.43 110.042 395.688" stroke="#061237" stroke-linecap="round" stroke-linejoin="round"/>
<path opacity="0.2" d="M360.724 334.729C375.314 334.848 393.571 400.504 399.254 408.061C399.254 408.061 480.744 410.862 491.013 422.21C501.281 433.558 496.195 443.142 502.953 453.906C509.711 464.67 511.645 482.812 511.645 482.812L529.555 512.982L452.793 549.696C452.793 549.696 411.779 526.237 401.773 520.945C391.768 515.652 362.121 504.09 354.24 489.142C346.36 474.194 345.966 460.164 344.27 453.954C342.575 447.743 375.529 429.148 375.529 429.148L360.724 334.729Z" fill="#061237" fill-opacity="0.7"/>
<path d="M539.777 518.943C533.162 512.839 526.213 506.355 520.494 500.991C513.198 494.149 507.909 489.154 507.909 489.154C503.563 480.047 499.742 476.984 494.93 469.796C490.118 462.608 490.858 455.027 489.724 444.99C488.59 434.953 484.518 426.311 482.023 420.399C479.527 414.486 479.324 408.371 478.823 407.048C478.321 405.725 470.763 399.896 467.265 395.128C465.696 393.002 463.779 391.156 461.593 389.669C459.149 387.937 456.338 386.791 453.379 386.319C452.152 386.154 450.91 386.13 449.677 386.248C447.245 386.635 444.849 387.221 442.513 388C439.433 388.739 431.648 384.984 427.159 385.163C426.323 385.163 425.499 385.282 424.663 385.401C420.799 386.122 416.998 387.147 413.296 388.465C409.249 389.657 403.47 387.01 399.291 386.701H399.207C398.277 386.599 397.336 386.718 396.461 387.046C392.509 388.703 384.951 391.23 384.951 391.23C384.951 391.23 383.004 386.093 380.927 378.976C380.569 377.784 380.198 376.592 379.804 375.4C378.348 371.061 376.76 367.235 375.781 363.635C375.521 362.713 375.31 361.778 375.148 360.834C374.264 355.625 373.142 351.655 371.1 343.86L370.885 343.025C370.241 340.641 369.691 338.257 369.082 336.159C367.566 331.105 365.5 327.601 360.235 328.03C355.602 328.411 353.071 331.367 352.939 339.187C352.808 347.007 351.316 346.804 353.381 357.711C355.447 368.618 354.683 376.056 356.342 381.444C358.002 386.832 359.339 397.739 359.339 397.739C357.035 397.202 355.351 398.513 355.208 399.455C355.065 400.397 355.542 409.146 355.781 415.428C355.984 421.007 352.307 427.086 351.387 431.186C351.387 431.186 351.387 431.258 351.387 431.282C351.285 431.724 351.225 432.175 351.208 432.629C351.077 436.634 353.525 444.549 355.984 454.836C358.444 465.123 358.372 476.292 362.623 482.562C363.501 483.826 364.578 484.941 365.811 485.864C370.921 489.786 379.184 492.253 387.649 498.488C398.216 506.295 405.774 512.088 412.031 513.984C416.52 515.366 418.693 516.845 420.018 519.169C420.548 520.189 420.949 521.27 421.212 522.387C421.809 524.545 423.397 525.963 426.06 528.228C430.225 531.704 434.066 535.55 437.534 539.719C440.782 543.581 446.155 551.139 451.862 559.542L539.777 518.943Z" fill="white"/>
<path opacity="0.4" d="M375.097 360.798C375.26 361.742 375.471 362.677 375.73 363.599C368.877 363.933 356.996 370.179 357.725 374.077C358.632 378.845 360.722 390.109 363.695 392.124C366.668 394.138 372.256 394.579 372.256 394.579C371.886 394.697 371.523 394.836 371.169 394.997L371.05 395.056C369.494 395.801 368.199 396.997 367.336 398.489C363.563 404.819 366.071 416.25 369.032 421.328C381.342 442.451 374.536 463.12 370.083 461.857C365.629 460.593 360.602 441.128 360.698 436.252C360.776 433.399 360.467 430.548 359.778 427.777C357.892 427.61 354.417 429.339 351.289 431.186C351.289 431.186 351.289 431.127 351.289 431.091C352.208 426.99 355.886 420.911 355.683 415.332C355.444 409.05 354.955 400.301 355.11 399.359C355.265 398.418 356.937 397.106 359.241 397.643C359.241 397.643 357.892 386.748 356.244 381.348C354.596 375.948 355.349 368.534 353.283 357.615C351.217 346.696 352.71 346.887 352.841 339.091C352.973 331.295 355.504 328.363 360.137 327.934C365.426 327.505 367.468 331.009 368.984 336.063C368.269 335.66 367.527 335.306 366.763 335.003C364.85 334.137 362.68 334.022 360.686 334.681C358.393 335.575 356.889 338.436 356.184 341.261C355.158 345.325 355.79 349.331 358.131 347.364C360.781 345.147 367.11 344.157 371.014 343.788C373.139 351.619 374.214 355.636 375.097 360.798Z" fill="#1355FF"/>
<path opacity="0.4" d="M421.198 522.41C420.937 521.295 420.536 520.218 420.004 519.203C418.679 516.879 416.506 515.401 412.017 514.018C405.76 512.075 398.202 506.282 387.635 498.522C379.17 492.288 370.919 489.82 365.797 485.898C371.409 487.4 377.832 484.408 380.973 488.151C385.534 493.551 402.286 499.38 402.286 499.38C419.706 509.953 421.198 522.41 421.198 522.41Z" fill="#1355FF"/>
<path opacity="0.4" d="M399.169 386.63C397.426 386.63 395.587 398.896 396.077 402.961C397.402 413.463 410.225 443.787 403.241 444.681C400.363 445.063 393.557 431.092 391.706 424.274C386.107 403.533 384.865 394.653 384.865 394.653C384.865 394.653 380.602 383.448 379.719 375.33C380.113 376.522 380.483 377.714 380.841 378.906C382.919 386.058 384.865 391.16 384.865 391.16C384.865 391.16 392.423 388.633 396.375 386.976C397.265 386.64 398.223 386.522 399.169 386.63Z" fill="#1355FF"/>
<path opacity="0.4" d="M424.626 385.438C421.044 386.63 418.239 391.076 415.409 392.423C411.946 394.08 403.29 387.476 399.254 386.737C403.433 387.047 409.212 389.741 413.26 388.501C416.962 387.183 420.763 386.158 424.626 385.438Z" fill="#1355FF"/>
<path opacity="0.4" d="M449.651 386.212C448.386 388.902 447.537 391.767 447.132 394.711C446.463 404.891 457.878 440.103 451.693 435.359C443.693 429.196 443.789 401.196 436.887 392.16C434.678 389.264 428.362 385.306 427.156 385.127C431.646 384.948 439.431 388.703 442.511 387.964C444.839 387.186 447.227 386.6 449.651 386.212Z" fill="#1355FF"/>
<path opacity="0.4" d="M520.469 500.942C514.368 496.674 508.064 492.717 504.339 491.525C495.192 488.736 491.73 484.373 489.091 476.422C486.452 468.471 488.566 468.15 489.091 459.531C489.616 450.913 482.715 442.033 483.575 444.107C484.435 446.181 484.22 461.987 481.617 463.358C479.014 464.728 475.647 454.954 473.354 446.848C471.062 438.743 466.393 399.609 463.36 392.457C462.938 391.412 462.349 390.442 461.617 389.584C463.802 391.072 465.72 392.918 467.289 395.043C470.787 399.811 478.345 405.617 478.847 406.964C479.348 408.31 479.539 414.402 482.047 420.314C484.554 426.226 488.614 434.857 489.748 444.905C490.882 454.954 490.166 462.535 494.954 469.711C499.742 476.887 503.586 479.962 507.932 489.069C507.885 489.141 513.174 494.1 520.469 500.942Z" fill="#1355FF"/>
<path opacity="0.4" d="M421.583 407.523C423.864 409.001 431.016 433.748 433.523 439.708C436.031 445.668 436.365 461.164 433.464 457.111C430.562 453.058 412.282 401.504 421.583 407.523Z" fill="#1355FF"/>
<path d="M449.69 556.371C444.794 549.279 440.352 543.104 437.523 539.743C434.054 535.573 430.214 531.727 426.048 528.252C423.386 525.963 421.798 524.568 421.201 522.411C420.939 521.296 420.538 520.219 420.007 519.204C418.681 516.88 416.508 515.402 412.019 514.019C405.762 512.076 398.204 506.283 387.637 498.523C379.172 492.288 370.921 489.821 365.799 485.899C364.566 484.976 363.49 483.861 362.611 482.597C358.396 476.375 358.432 465.134 355.972 454.871C353.513 444.608 351.065 436.669 351.196 432.664C351.213 432.21 351.273 431.759 351.376 431.317C351.376 431.317 351.376 431.257 351.376 431.222C352.295 427.121 355.972 421.042 355.77 415.463C355.531 409.181 355.041 400.432 355.196 399.49C355.352 398.549 357.023 397.237 359.328 397.774C359.328 397.774 357.978 386.879 356.331 381.479C354.683 376.079 355.435 368.665 353.37 357.746C351.304 346.827 352.796 347.018 352.928 339.222C353.059 331.426 355.59 328.494 360.223 328.065C365.513 327.636 367.554 331.14 369.071 336.194C369.703 338.28 370.265 340.629 370.874 343.06L371.089 343.895C373.13 351.691 374.253 355.66 375.136 360.869C375.298 361.813 375.51 362.748 375.769 363.67C376.748 367.246 378.336 371.096 379.793 375.435C380.187 376.627 380.557 377.819 380.915 379.011C382.993 386.164 384.939 391.265 384.939 391.265C384.939 391.265 392.497 388.738 396.449 387.081C397.325 386.753 398.265 386.635 399.195 386.736H399.279C403.458 387.046 409.237 389.74 413.284 388.5C416.987 387.182 420.788 386.157 424.651 385.436V385.436C425.487 385.317 426.311 385.234 427.147 385.198C431.636 385.019 439.421 388.774 442.502 388.035C444.838 387.256 447.234 386.67 449.666 386.283C450.898 386.166 452.14 386.19 453.367 386.354C456.327 386.826 459.137 387.973 461.582 389.704C463.767 391.192 465.684 393.037 467.253 395.163C470.752 399.931 478.31 405.736 478.811 407.083C479.313 408.43 479.504 414.522 482.011 420.434C484.518 426.346 488.578 434.976 489.712 445.025C490.847 455.074 490.13 462.655 494.918 469.831C499.706 477.007 503.551 480.082 507.897 489.189C507.897 489.189 513.186 494.184 520.482 501.026C525.556 505.794 531.598 511.42 537.508 516.892" stroke="#061237" stroke-linecap="round" stroke-linejoin="round"/>
<path d="M359.277 397.689C361.08 405.223 362.632 414.747 362.418 418.907C362.203 423.067 366.095 435.882 365.307 441.865" stroke="#061237" stroke-linecap="round" stroke-linejoin="round"/>
<path d="M364.594 402.696C364.594 402.696 368.426 395.543 372.319 394.578C376.211 393.612 380.677 395.234 384.916 394.709C389.154 394.185 392.701 390.132 396.474 388.463" stroke="#061237" stroke-linecap="round" stroke-linejoin="round"/>
<path d="M360.984 374.531C360.984 374.531 367.444 370.251 371.73 371.956" stroke="#061237" stroke-linecap="round" stroke-linejoin="round"/>
<path d="M365.559 369.941C367.335 369.206 369.309 369.093 371.158 369.619" stroke="#061237" stroke-linecap="round" stroke-linejoin="round"/>
<path d="M359.289 352.06C361.552 350.958 364.031 350.368 366.549 350.332" stroke="#061237" stroke-linecap="round" stroke-linejoin="round"/>
<path d="M351.34 431.138C353.139 429.619 355.088 428.285 357.155 427.156" stroke="#061237" stroke-linecap="round" stroke-linejoin="round"/>
<path d="M365.021 435.273C364.198 437.564 363.614 439.932 363.277 442.342" stroke="#061237" stroke-linecap="round" stroke-linejoin="round"/>
<path d="M354.859 333.596C354.859 333.596 355.85 342.572 357.128 343.133C358.406 343.693 367.05 342.358 367.373 340.689C367.695 339.02 366.298 332.607 366.298 332.607C366.298 332.607 359.158 325.085 354.859 333.596Z" stroke="#061237" stroke-linecap="round" stroke-linejoin="round"/>
<path d="M355.722 415.38C355.722 415.38 361.883 410.171 360.844 405.081C359.805 399.991 357.752 400.527 355.137 401.123" stroke="#061237" stroke-linecap="round" stroke-linejoin="round"/>
<path d="M467.812 400.754C469.962 408.681 473.245 432.509 473.783 435.99C474.32 439.47 476.696 448.172 476.696 448.172" stroke="#061237" stroke-linecap="round" stroke-linejoin="round"/>
<path d="M413.367 394.424C423.54 403.59 414.991 401.23 432.328 452.415" stroke="#061237" stroke-linecap="round" stroke-linejoin="round"/>
<path d="M507.884 489.143C507.884 489.143 499.956 485.567 498.105 482.861" stroke="#061237" stroke-linecap="round" stroke-linejoin="round"/>
<path d="M413.953 508.918C416.747 511.767 419.768 518.74 419.923 519.169" stroke="#061237" stroke-linecap="round" stroke-linejoin="round"/>
<path d="M399.259 191.696L395.878 184.941L397.443 184.818L400.009 190.143L401.76 184.478L403.256 184.36L400.934 191.565L399.259 191.696ZM404.397 191.292L403.848 184.314L405.293 184.2L405.843 191.178L404.397 191.292ZM409.613 190.982C409.049 191.026 408.489 190.967 407.934 190.803C407.379 190.633 406.877 190.371 406.428 190.019L407.174 188.917C407.607 189.237 408.016 189.466 408.402 189.603C408.793 189.732 409.198 189.781 409.617 189.748C409.909 189.725 410.159 189.672 410.366 189.588C410.573 189.499 410.728 189.383 410.831 189.241C410.94 189.099 410.987 188.938 410.973 188.758C410.954 188.519 410.854 188.343 410.671 188.23C410.488 188.111 410.184 188.031 409.759 187.991L408.355 187.861C407.755 187.808 407.287 187.634 406.949 187.34C406.619 187.045 406.433 186.645 406.394 186.139C406.36 185.707 406.44 185.323 406.634 184.987C406.835 184.65 407.131 184.383 407.524 184.185C407.922 183.98 408.404 183.855 408.969 183.81C409.481 183.77 409.996 183.816 410.514 183.949C411.04 184.082 411.511 184.286 411.927 184.56L411.234 185.698C410.459 185.198 409.703 184.976 408.965 185.034C408.706 185.055 408.482 185.106 408.295 185.187C408.107 185.269 407.965 185.374 407.868 185.502C407.777 185.623 407.738 185.763 407.751 185.922C407.768 186.135 407.857 186.295 408.019 186.403C408.181 186.504 408.444 186.57 408.807 186.602L410.141 186.717C410.847 186.775 411.386 186.957 411.758 187.262C412.129 187.561 412.336 187.979 412.379 188.517C412.414 188.969 412.326 189.374 412.113 189.732C411.9 190.083 411.578 190.369 411.147 190.59C410.723 190.804 410.212 190.935 409.613 190.982ZM412.637 190.644L414.959 183.439L416.624 183.308L420.014 190.063L418.449 190.186L417.597 188.407L414.716 188.634L414.143 190.525L412.637 190.644ZM415.074 187.442L417.067 187.286L415.868 184.792L415.074 187.442ZM425.112 189.762C424.548 189.806 423.988 189.747 423.433 189.583C422.878 189.413 422.376 189.151 421.927 188.799L422.673 187.697C423.106 188.017 423.515 188.246 423.9 188.383C424.292 188.513 424.697 188.561 425.116 188.528C425.408 188.505 425.658 188.452 425.865 188.369C426.072 188.279 426.227 188.163 426.33 188.021C426.439 187.879 426.486 187.718 426.472 187.538C426.453 187.299 426.353 187.123 426.17 187.011C425.987 186.891 425.683 186.811 425.258 186.771L423.854 186.641C423.254 186.588 422.786 186.414 422.448 186.12C422.118 185.825 421.932 185.425 421.893 184.92C421.859 184.488 421.939 184.104 422.133 183.767C422.334 183.43 422.63 183.163 423.023 182.965C423.421 182.76 423.903 182.635 424.468 182.59C424.98 182.55 425.495 182.597 426.013 182.73C426.539 182.862 427.01 183.066 427.426 183.341L426.733 184.479C425.958 183.978 425.202 183.756 424.464 183.815C424.205 183.835 423.981 183.886 423.794 183.968C423.606 184.049 423.464 184.154 423.367 184.282C423.276 184.403 423.237 184.543 423.25 184.703C423.266 184.915 423.356 185.075 423.518 185.183C423.68 185.284 423.943 185.35 424.306 185.382L425.639 185.498C426.346 185.556 426.885 185.737 427.257 186.042C427.628 186.341 427.835 186.759 427.878 187.297C427.913 187.749 427.825 188.154 427.612 188.512C427.399 188.863 427.077 189.149 426.646 189.37C426.222 189.584 425.711 189.715 425.112 189.762ZM428.901 189.363L428.352 182.385L431.851 182.11C432.31 182.074 432.719 182.135 433.08 182.294C433.447 182.452 433.743 182.69 433.968 183.006C434.2 183.316 434.333 183.687 434.367 184.119C434.399 184.531 434.325 184.908 434.145 185.249C433.971 185.591 433.715 185.868 433.378 186.082C433.04 186.296 432.645 186.421 432.193 186.456L430.14 186.618L430.347 189.25L428.901 189.363ZM430.046 185.422L431.94 185.272C432.252 185.248 432.495 185.142 432.667 184.954C432.846 184.766 432.925 184.53 432.902 184.244C432.879 183.951 432.764 183.726 432.558 183.569C432.358 183.411 432.102 183.344 431.79 183.368L429.896 183.517L430.046 185.422ZM439.115 188.67C438.597 188.711 438.108 188.659 437.648 188.515C437.188 188.364 436.776 188.139 436.412 187.84C436.053 187.533 435.761 187.172 435.534 186.755C435.313 186.331 435.183 185.867 435.143 185.361C435.104 184.856 435.16 184.38 435.312 183.934C435.47 183.48 435.702 183.077 436.009 182.725C436.322 182.366 436.694 182.08 437.125 181.865C437.556 181.644 438.03 181.513 438.549 181.472C439.067 181.431 439.556 181.487 440.016 181.638C440.482 181.781 440.894 182.007 441.253 182.313C441.618 182.612 441.91 182.973 442.131 183.397C442.351 183.814 442.481 184.276 442.521 184.781C442.56 185.286 442.504 185.765 442.353 186.218C442.201 186.665 441.968 187.068 441.655 187.427C441.349 187.779 440.977 188.065 440.539 188.287C440.108 188.502 439.634 188.629 439.115 188.67ZM439.011 187.344C439.33 187.319 439.618 187.239 439.875 187.106C440.131 186.965 440.351 186.787 440.535 186.572C440.718 186.35 440.855 186.096 440.946 185.808C441.037 185.519 441.07 185.216 441.045 184.897C441.019 184.571 440.939 184.277 440.805 184.013C440.67 183.743 440.495 183.516 440.28 183.332C440.064 183.142 439.819 183.001 439.544 182.909C439.269 182.81 438.972 182.773 438.653 182.798C438.341 182.823 438.056 182.905 437.8 183.046C437.543 183.18 437.323 183.358 437.14 183.579C436.956 183.794 436.819 184.046 436.728 184.334C436.636 184.615 436.603 184.916 436.628 185.235C436.654 185.56 436.734 185.858 436.869 186.128C437.004 186.399 437.179 186.629 437.395 186.819C437.61 187.003 437.855 187.144 438.13 187.243C438.405 187.335 438.698 187.369 439.011 187.344ZM443.797 188.191L443.248 181.213L444.623 181.105L448.447 185.338L448.093 180.831L449.448 180.725L449.998 187.703L448.722 187.804L444.795 183.418L445.163 188.084L443.797 188.191ZM453.764 187.507C453.199 187.552 452.639 187.492 452.085 187.328C451.53 187.158 451.028 186.897 450.579 186.544L451.325 185.442C451.758 185.762 452.167 185.991 452.552 186.128C452.943 186.258 453.349 186.306 453.767 186.273C454.06 186.25 454.31 186.197 454.517 186.114C454.724 186.024 454.879 185.908 454.981 185.766C455.09 185.624 455.138 185.463 455.124 185.284C455.105 185.044 455.004 184.868 454.821 184.756C454.638 184.636 454.334 184.557 453.91 184.516L452.505 184.386C451.906 184.333 451.438 184.159 451.1 183.865C450.769 183.57 450.584 183.17 450.544 182.665C450.51 182.233 450.59 181.849 450.785 181.512C450.985 181.176 451.282 180.908 451.674 180.71C452.073 180.505 452.554 180.38 453.119 180.336C453.631 180.295 454.146 180.342 454.665 180.475C455.19 180.607 455.661 180.811 456.077 181.086L455.385 182.224C454.61 181.723 453.853 181.502 453.115 181.56C452.856 181.58 452.633 181.631 452.445 181.713C452.258 181.794 452.116 181.899 452.019 182.027C451.928 182.148 451.889 182.288 451.901 182.448C451.918 182.66 452.008 182.82 452.17 182.928C452.332 183.029 452.594 183.095 452.958 183.127L454.291 183.243C454.998 183.301 455.537 183.482 455.909 183.787C456.28 184.086 456.487 184.504 456.529 185.043C456.565 185.494 456.476 185.899 456.264 186.257C456.051 186.608 455.729 186.894 455.298 187.116C454.874 187.329 454.362 187.46 453.764 187.507ZM460.981 186.949C460.463 186.99 459.974 186.938 459.514 186.794C459.054 186.643 458.642 186.418 458.278 186.119C457.919 185.813 457.627 185.451 457.4 185.034C457.179 184.61 457.049 184.146 457.009 183.641C456.97 183.135 457.026 182.66 457.178 182.213C457.336 181.759 457.568 181.356 457.875 181.004C458.188 180.645 458.56 180.359 458.991 180.144C459.422 179.923 459.896 179.792 460.415 179.751C460.933 179.711 461.422 179.766 461.882 179.917C462.348 180.061 462.76 180.286 463.119 180.592C463.484 180.891 463.776 181.252 463.997 181.676C464.217 182.094 464.347 182.555 464.386 183.06C464.426 183.565 464.37 184.044 464.219 184.498C464.067 184.944 463.834 185.347 463.521 185.706C463.215 186.058 462.843 186.345 462.405 186.566C461.974 186.781 461.5 186.908 460.981 186.949ZM460.877 185.623C461.196 185.598 461.484 185.519 461.741 185.385C461.997 185.244 462.217 185.066 462.401 184.851C462.584 184.63 462.721 184.375 462.812 184.087C462.903 183.799 462.936 183.495 462.911 183.176C462.885 182.85 462.805 182.556 462.671 182.292C462.536 182.022 462.361 181.795 462.146 181.611C461.93 181.421 461.685 181.28 461.41 181.188C461.135 181.089 460.838 181.052 460.519 181.077C460.207 181.102 459.922 181.184 459.666 181.325C459.409 181.459 459.189 181.637 459.006 181.858C458.822 182.073 458.685 182.325 458.594 182.613C458.502 182.894 458.469 183.195 458.494 183.514C458.52 183.839 458.6 184.137 458.735 184.408C458.87 184.678 459.045 184.908 459.261 185.098C459.476 185.282 459.721 185.423 459.996 185.522C460.271 185.614 460.564 185.648 460.877 185.623ZM465.663 186.47L465.114 179.492L468.523 179.224C468.995 179.186 469.418 179.247 469.791 179.405C470.171 179.555 470.476 179.785 470.708 180.095C470.94 180.404 471.072 180.772 471.106 181.197C471.141 181.642 471.045 182.044 470.82 182.403C470.6 182.761 470.291 183.04 469.892 183.239L471.664 185.998L470.049 186.125L468.473 183.561L466.898 183.685L467.108 186.357L465.663 186.47ZM466.805 182.498L468.639 182.354C468.965 182.328 469.217 182.222 469.396 182.034C469.582 181.845 469.664 181.611 469.642 181.332C469.62 181.053 469.502 180.835 469.289 180.678C469.083 180.52 468.817 180.454 468.491 180.48L466.657 180.624L466.805 182.498ZM472.429 185.938L471.88 178.959L477.243 178.537L477.342 179.793L473.424 180.102L473.55 181.697L476.132 181.494L476.227 182.71L473.645 182.913L473.776 184.568L477.733 184.256L477.832 185.513L472.429 185.938ZM480.199 184.032L481.415 183.937C481.727 183.912 482.012 183.836 482.27 183.709C482.533 183.574 482.757 183.4 482.941 183.185C483.131 182.969 483.269 182.724 483.354 182.45C483.446 182.175 483.48 181.882 483.455 181.569C483.431 181.257 483.352 180.972 483.218 180.715C483.083 180.452 482.909 180.228 482.693 180.044C482.478 179.861 482.23 179.723 481.949 179.631C481.674 179.539 481.381 179.506 481.068 179.53L479.852 179.626L480.199 184.032ZM478.854 185.432L478.305 178.454L480.987 178.243C481.512 178.201 482.004 178.253 482.464 178.397C482.922 178.535 483.331 178.75 483.688 179.043C484.045 179.336 484.334 179.688 484.553 180.099C484.78 180.509 484.912 180.96 484.951 181.452C484.99 181.943 484.933 182.409 484.78 182.849C484.627 183.283 484.393 183.672 484.08 184.018C483.772 184.356 483.402 184.633 482.971 184.847C482.54 185.055 482.061 185.18 481.536 185.221L478.854 185.432Z" fill="black"/>
</svg>
