<svg width="26" height="26" viewBox="0 0 26 26" fill="none" xmlns="http://www.w3.org/2000/svg">
<path d="M22.8457 7.56214C21.9248 6.5438 20.3865 6.03464 18.1548 6.03464H17.8948V5.9913C17.8948 4.1713 17.8948 1.91797 13.8215 1.91797H12.1748C8.1015 1.91797 8.1015 4.18214 8.1015 5.9913V6.04547H7.8415C5.599 6.04547 4.0715 6.55464 3.15067 7.57297C2.07817 8.76464 2.11067 10.368 2.219 11.4621L2.22984 11.538L2.33817 12.6755C2.349 12.6863 2.37067 12.708 2.39234 12.7188C2.74984 12.9571 3.11817 13.1955 3.50817 13.4121C3.65984 13.5096 3.82234 13.5963 3.98484 13.683C5.83734 14.7013 7.874 15.3838 9.94317 15.7196C10.0407 16.738 10.4848 17.9296 12.8573 17.9296C15.2298 17.9296 15.6957 16.7488 15.7715 15.698C17.9815 15.3405 20.1157 14.5713 22.044 13.4446C22.109 13.4121 22.1523 13.3796 22.2065 13.3471C22.7048 13.0655 23.1707 12.7621 23.6257 12.4263C23.6473 12.4155 23.669 12.3938 23.6798 12.3721L23.7232 11.9821L23.7773 11.473C23.7882 11.408 23.7882 11.3538 23.799 11.278C23.8857 10.1838 23.864 8.6888 22.8457 7.56214ZM14.179 14.983C14.179 16.1313 14.179 16.3046 12.8465 16.3046C11.514 16.3046 11.514 16.0988 11.514 14.9938V13.6288H14.179V14.983ZM9.65067 6.03464V5.9913C9.65067 4.14964 9.65067 3.46714 12.1748 3.46714H13.8215C16.3457 3.46714 16.3457 4.16047 16.3457 5.9913V6.04547H9.65067V6.03464Z" fill="#1355FF"/>
<path opacity="0.4" d="M22.2082 13.3246C22.154 13.3571 22.0998 13.3896 22.0457 13.4221C20.1173 14.5488 17.9832 15.3071 15.7732 15.6754C15.6865 16.7154 15.2315 17.9071 12.859 17.9071C10.4865 17.9071 10.0315 16.7263 9.94484 15.6971C7.87568 15.3721 5.83901 14.6896 3.98651 13.6604C3.82401 13.5738 3.66151 13.4871 3.50984 13.3896C3.11984 13.1729 2.75151 12.9346 2.39401 12.6963C2.37234 12.6854 2.35068 12.6638 2.33984 12.6529L3.00068 19.7054C3.22818 21.8613 4.11651 24.0821 8.88318 24.0821H17.1382C21.9048 24.0821 22.7932 21.8613 23.0207 19.6946L23.7032 12.3496C23.6923 12.3713 23.6707 12.3929 23.649 12.4038C23.1832 12.7396 22.7065 13.0538 22.2082 13.3246Z" fill="#1355FF"/>
</svg>
