<svg width="16" height="16" viewBox="0 0 16 16" fill="none" xmlns="http://www.w3.org/2000/svg">
<g opacity="0.4">
<g opacity="0.6">
<path opacity="0.6" d="M7.99832 1.33496C6.67985 1.33496 5.391 1.72593 4.29473 2.45843C3.19847 3.19093 2.34403 4.23206 1.83948 5.45017C1.33492 6.66827 1.2029 8.00864 1.46013 9.30177C1.71735 10.5949 2.35225 11.7827 3.28454 12.715C4.21684 13.6473 5.40466 14.2822 6.69779 14.5394C7.99093 14.7967 9.33129 14.6646 10.5494 14.1601C11.7675 13.6555 12.8086 12.8011 13.5411 11.7048C14.2736 10.6086 14.6646 9.31971 14.6646 8.00125C14.6616 6.23417 13.9583 4.54033 12.7088 3.29081C11.4592 2.04129 9.7654 1.33798 7.99832 1.33496V1.33496ZM10.2383 9.53496C10.3311 9.62906 10.3832 9.75593 10.3832 9.8881C10.3832 10.0203 10.3311 10.1471 10.2383 10.2412C10.1447 10.3349 10.0176 10.3875 9.88518 10.3875C9.75272 10.3875 9.6257 10.3349 9.53203 10.2412L7.99832 8.70868L6.46575 10.2412C6.37209 10.3349 6.24506 10.3875 6.11261 10.3875C5.98015 10.3875 5.85312 10.3349 5.75946 10.2412C5.66664 10.1471 5.61459 10.0203 5.61459 9.8881C5.61459 9.75593 5.66664 9.62906 5.75946 9.53496L7.29204 8.00125L5.75832 6.46868C5.6656 6.37482 5.61378 6.24809 5.61417 6.11616C5.61457 5.98423 5.66716 5.85781 5.76045 5.76452C5.85374 5.67123 5.98016 5.61864 6.11209 5.61824C6.24402 5.61785 6.37075 5.66967 6.46461 5.76239L7.99832 7.29496L9.53203 5.76125C9.57831 5.71441 9.63339 5.67718 9.6941 5.65171C9.75481 5.62624 9.81996 5.61302 9.8858 5.61283C9.95164 5.61263 10.0169 5.62545 10.0777 5.65055C10.1386 5.67565 10.1939 5.71255 10.2405 5.7591C10.287 5.80566 10.3239 5.86096 10.349 5.92183C10.3741 5.98269 10.3869 6.04792 10.3867 6.11376C10.3865 6.1796 10.3733 6.24475 10.3479 6.30547C10.3224 6.36618 10.2852 6.42126 10.2383 6.46753L8.70575 8.00125L10.2383 9.53496Z" fill="#061237"/>
</g>
</g>
</svg>
