<svg width="16" height="15" viewBox="0 0 16 15" fill="none" xmlns="http://www.w3.org/2000/svg">
<path d="M7.33203 1.56055H5.9987C2.66536 1.56055 1.33203 2.77369 1.33203 5.80656V9.44599C1.33203 12.4789 2.66536 13.692 5.9987 13.692H9.9987C13.332 13.692 14.6654 12.4789 14.6654 9.44599V8.23285" stroke="#045DE9" stroke-width="1.5" stroke-linecap="round" stroke-linejoin="round"/>
<path d="M10.6933 2.1793L5.43992 6.95909C5.23992 7.14106 5.03992 7.49894 4.99992 7.75977L4.71325 9.58555C4.60659 10.2467 5.11992 10.7077 5.84659 10.6167L7.85325 10.3559C8.13325 10.3195 8.52659 10.1375 8.73325 9.95556L13.9866 5.17577C14.8933 4.35083 15.3199 3.39244 13.9866 2.1793C12.6533 0.966151 11.5999 1.35436 10.6933 2.1793Z" stroke="#045DE9" stroke-width="1.5" stroke-miterlimit="10" stroke-linecap="round" stroke-linejoin="round"/>
<path d="M9.94141 2.86523C10.3881 4.31494 11.6347 5.44923 13.2347 5.8617" stroke="#045DE9" stroke-width="1.5" stroke-miterlimit="10" stroke-linecap="round" stroke-linejoin="round"/>
</svg>
