<svg width="20" height="20" viewBox="0 0 20 20" fill="none" xmlns="http://www.w3.org/2000/svg">
<path d="M10.0018 1.66605C8.9656 1.67222 7.97323 2.08479 7.23808 2.81503C6.50293 3.54528 6.08373 4.53486 6.07063 5.57098C6.05753 6.60709 6.45157 7.60696 7.16802 8.35556C7.88446 9.10416 8.86609 9.54169 9.90177 9.57405C9.96249 9.56571 10.0241 9.56571 10.0848 9.57405H10.1438C11.1829 9.54132 12.1674 9.10073 12.8841 8.34763C13.6009 7.59453 13.9923 6.5895 13.9736 5.55001C13.9549 4.51052 13.5277 3.52019 12.7844 2.79331C12.0411 2.06643 11.0414 1.66147 10.0018 1.66605Z" fill="#1355FF"/>
<path d="M14.2328 11.7913C12.9534 11.0305 11.4924 10.6289 10.0038 10.6289C8.51525 10.6289 7.05425 11.0305 5.77481 11.7913C5.29754 12.0666 4.89708 12.4573 4.61017 12.9277C4.32327 13.3981 4.15913 13.933 4.13281 14.4833C4.15854 15.0304 4.32162 15.5623 4.60701 16.0298C4.8924 16.4973 5.29092 16.8854 5.76581 17.1583C7.0335 17.9515 8.50471 18.3584 9.99981 18.3293C11.4946 18.3582 12.9654 17.9513 14.2328 17.1583C14.7085 16.882 15.1072 16.4908 15.3925 16.0205C15.6778 15.5502 15.8405 15.0158 15.8658 14.4663C15.8384 13.9196 15.6746 13.3885 15.3894 12.9212C15.1041 12.454 14.7065 12.0656 14.2328 11.7913Z" fill="#1355FF"/>
</svg>
