<svg width="18" height="18" viewBox="0 0 18 18" fill="none" xmlns="http://www.w3.org/2000/svg">
<path d="M6.72656 16.5H11.2266C14.9766 16.5 16.4766 15 16.4766 11.25V6.75C16.4766 3 14.9766 1.5 11.2266 1.5H6.72656C2.97656 1.5 1.47656 3 1.47656 6.75V11.25C1.47656 15 2.97656 16.5 6.72656 16.5Z" stroke="white" stroke-width="1.5" stroke-linecap="round" stroke-linejoin="round"/>
<path d="M1.47656 9.52508L5.97656 9.51008C6.53906 9.51008 7.16906 9.93758 7.37906 10.4626L8.23406 12.6226C8.42906 13.1101 8.73656 13.1101 8.93156 12.6226L10.6491 8.26508C10.8141 7.84508 11.1216 7.83008 11.3316 8.22758L12.1116 9.70508C12.3441 10.1476 12.9441 10.5076 13.4391 10.5076H16.4841" stroke="white" stroke-width="1.5" stroke-linecap="round" stroke-linejoin="round"/>
</svg>
