<svg width="240" height="28" viewBox="0 0 240 28" fill="none" xmlns="http://www.w3.org/2000/svg">
<path d="M22.8457 8.56214C21.9248 7.5438 20.3865 7.03464 18.1548 7.03464H17.8948V6.9913C17.8948 5.1713 17.8948 2.91797 13.8215 2.91797H12.1748C8.1015 2.91797 8.1015 5.18214 8.1015 6.9913V7.04547H7.8415C5.599 7.04547 4.0715 7.55464 3.15067 8.57297C2.07817 9.76464 2.11067 11.368 2.219 12.4621L2.22984 12.538L2.33817 13.6755C2.349 13.6863 2.37067 13.708 2.39234 13.7188C2.74984 13.9571 3.11817 14.1955 3.50817 14.4121C3.65984 14.5096 3.82234 14.5963 3.98484 14.683C5.83734 15.7013 7.874 16.3838 9.94317 16.7196C10.0407 17.738 10.4848 18.9296 12.8573 18.9296C15.2298 18.9296 15.6957 17.7488 15.7715 16.698C17.9815 16.3405 20.1157 15.5713 22.044 14.4446C22.109 14.4121 22.1523 14.3796 22.2065 14.3471C22.7048 14.0655 23.1707 13.7621 23.6257 13.4263C23.6473 13.4155 23.669 13.3938 23.6798 13.3721L23.7232 12.9821L23.7773 12.473C23.7882 12.408 23.7882 12.3538 23.799 12.278C23.8857 11.1838 23.864 9.6888 22.8457 8.56214ZM14.179 15.983C14.179 17.1313 14.179 17.3046 12.8465 17.3046C11.514 17.3046 11.514 17.0988 11.514 15.9938V14.6288H14.179V15.983ZM9.65067 7.03464V6.9913C9.65067 5.14964 9.65067 4.46714 12.1748 4.46714H13.8215C16.3457 4.46714 16.3457 5.16047 16.3457 6.9913V7.04547H9.65067V7.03464Z" fill="#045DE9"/>
<path opacity="0.4" d="M22.2082 14.3246C22.154 14.3571 22.0998 14.3896 22.0457 14.4221C20.1173 15.5488 17.9832 16.3071 15.7732 16.6754C15.6865 17.7154 15.2315 18.9071 12.859 18.9071C10.4865 18.9071 10.0315 17.7263 9.94484 16.6971C7.87568 16.3721 5.83901 15.6896 3.98651 14.6604C3.82401 14.5738 3.66151 14.4871 3.50984 14.3896C3.11984 14.1729 2.75151 13.9346 2.39401 13.6963C2.37234 13.6854 2.35068 13.6638 2.33984 13.6529L3.00068 20.7054C3.22818 22.8613 4.11651 25.0821 8.88318 25.0821H17.1382C21.9048 25.0821 22.7932 22.8613 23.0207 20.6946L23.7032 13.3496C23.6923 13.3713 23.6707 13.3929 23.649 13.4038C23.1832 13.7396 22.7065 14.0538 22.2082 14.3246Z" fill="#045DE9"/>
<path d="M42.136 24.28C40.3627 24.28 38.8227 23.9253 37.516 23.216C36.228 22.5067 35.2293 21.4987 34.52 20.192C33.8107 18.8667 33.456 17.3173 33.456 15.544V4.4H37.516V15.544C37.516 16.552 37.7027 17.4387 38.076 18.204C38.468 18.9507 39.0093 19.5293 39.7 19.94C40.4093 20.332 41.2307 20.528 42.164 20.528C43.0973 20.528 43.9093 20.332 44.6 19.94C45.2907 19.5293 45.8227 18.9507 46.196 18.204C46.588 17.4387 46.784 16.552 46.784 15.544V4.4H50.816V15.544C50.816 17.2987 50.4613 18.8387 49.752 20.164C49.0427 21.4707 48.0347 22.488 46.728 23.216C45.44 23.9253 43.9093 24.28 42.136 24.28ZM54.0531 24V4.4H58.1131V13.164L66.6811 4.4H71.6371L62.1171 13.724L72.0851 24H66.6531L58.1131 14.9V24H54.0531ZM85.2853 24L77.3333 4.4H81.7293L87.7213 19.828L93.8533 4.4H98.0533L89.9893 24H85.2853ZM99.4651 24V9.412H103.301V24H99.4651ZM101.369 7.676C100.772 7.676 100.258 7.46133 99.8291 7.032C99.3998 6.60267 99.1851 6.08933 99.1851 5.492C99.1851 4.876 99.3998 4.36267 99.8291 3.952C100.258 3.52267 100.772 3.308 101.369 3.308C101.985 3.308 102.498 3.52267 102.909 3.952C103.338 4.36267 103.553 4.876 103.553 5.492C103.553 6.08933 103.338 6.60267 102.909 7.032C102.498 7.46133 101.985 7.676 101.369 7.676ZM111.761 24.28C110.417 24.28 109.176 24.112 108.037 23.776C106.898 23.4213 105.909 22.9173 105.069 22.264L106.973 19.716C107.813 20.276 108.616 20.696 109.381 20.976C110.165 21.256 110.94 21.396 111.705 21.396C112.564 21.396 113.245 21.256 113.749 20.976C114.272 20.6773 114.533 20.2947 114.533 19.828C114.533 19.4547 114.384 19.156 114.085 18.932C113.805 18.708 113.348 18.5493 112.713 18.456L109.913 18.036C108.457 17.812 107.356 17.3453 106.609 16.636C105.862 15.908 105.489 14.956 105.489 13.78C105.489 12.828 105.732 12.016 106.217 11.344C106.721 10.6533 107.421 10.1213 108.317 9.748C109.232 9.356 110.314 9.16 111.565 9.16C112.629 9.16 113.665 9.30933 114.673 9.608C115.7 9.90667 116.661 10.364 117.557 10.98L115.709 13.472C114.906 12.968 114.141 12.604 113.413 12.38C112.685 12.156 111.948 12.044 111.201 12.044C110.51 12.044 109.95 12.1747 109.521 12.436C109.11 12.6973 108.905 13.0427 108.905 13.472C108.905 13.864 109.054 14.172 109.353 14.396C109.652 14.62 110.165 14.7787 110.893 14.872L113.665 15.292C115.121 15.4973 116.232 15.964 116.997 16.692C117.762 17.4013 118.145 18.3253 118.145 19.464C118.145 20.3973 117.865 21.228 117.305 21.956C116.745 22.6653 115.989 23.2347 115.037 23.664C114.085 24.0747 112.993 24.28 111.761 24.28ZM124.84 24.252C123.794 24.252 122.87 24.0653 122.068 23.692C121.265 23.3 120.64 22.768 120.192 22.096C119.744 21.424 119.52 20.6493 119.52 19.772C119.52 18.372 120.042 17.2893 121.088 16.524C122.152 15.74 123.608 15.348 125.456 15.348C126.725 15.348 127.92 15.544 129.04 15.936V14.872C129.04 14.032 128.778 13.3973 128.256 12.968C127.733 12.5387 126.968 12.324 125.96 12.324C125.344 12.324 124.681 12.4267 123.972 12.632C123.262 12.8187 122.441 13.1173 121.508 13.528L120.108 10.7C121.265 10.1773 122.366 9.78533 123.412 9.524C124.476 9.26267 125.54 9.132 126.604 9.132C128.564 9.132 130.085 9.608 131.168 10.56C132.269 11.4933 132.82 12.8187 132.82 14.536V24H129.04V22.964C128.442 23.412 127.798 23.7387 127.108 23.944C126.417 24.1493 125.661 24.252 124.84 24.252ZM123.16 19.688C123.16 20.248 123.402 20.696 123.888 21.032C124.373 21.3493 125.017 21.508 125.82 21.508C126.454 21.508 127.042 21.4333 127.584 21.284C128.125 21.116 128.61 20.8733 129.04 20.556V18.428C128.573 18.2413 128.088 18.1013 127.584 18.008C127.08 17.9147 126.538 17.868 125.96 17.868C125.082 17.868 124.392 18.036 123.888 18.372C123.402 18.6893 123.16 19.128 123.16 19.688ZM148.244 24.28C146.284 24.28 144.622 23.7853 143.26 22.796C141.897 21.8067 140.917 20.388 140.32 18.54L144.072 17.112C144.482 18.3067 145.024 19.184 145.696 19.744C146.386 20.304 147.236 20.584 148.244 20.584C149.457 20.584 150.428 20.192 151.156 19.408C151.902 18.624 152.276 17.5787 152.276 16.272V4.4H156.336V16.384C156.336 17.9707 156 19.3613 155.328 20.556C154.656 21.732 153.713 22.6467 152.5 23.3C151.286 23.9533 149.868 24.28 148.244 24.28ZM166.405 24.28C164.949 24.28 163.633 23.944 162.457 23.272C161.281 22.6 160.348 21.6947 159.657 20.556C158.967 19.4173 158.621 18.1387 158.621 16.72C158.621 15.3013 158.957 14.0227 159.629 12.884C160.32 11.7267 161.253 10.812 162.429 10.14C163.624 9.468 164.949 9.132 166.405 9.132C167.861 9.132 169.177 9.468 170.353 10.14C171.548 10.812 172.481 11.7267 173.153 12.884C173.844 14.0227 174.189 15.3013 174.189 16.72C174.189 18.1387 173.844 19.4173 173.153 20.556C172.481 21.6947 171.557 22.6 170.381 23.272C169.205 23.944 167.88 24.28 166.405 24.28ZM166.405 20.948C167.171 20.948 167.852 20.7613 168.449 20.388C169.065 20.0147 169.551 19.5107 169.905 18.876C170.279 18.2227 170.465 17.504 170.465 16.72C170.465 15.9173 170.279 15.1987 169.905 14.564C169.551 13.9293 169.065 13.4253 168.449 13.052C167.852 12.66 167.171 12.464 166.405 12.464C165.659 12.464 164.977 12.66 164.361 13.052C163.745 13.4253 163.26 13.9293 162.905 14.564C162.551 15.1987 162.373 15.9173 162.373 16.72C162.373 17.504 162.551 18.2227 162.905 18.876C163.26 19.5107 163.745 20.0147 164.361 20.388C164.977 20.7613 165.659 20.948 166.405 20.948ZM176.547 24V4.4L180.383 3.756V10.588C181.54 9.67333 182.903 9.216 184.471 9.216C185.852 9.216 187.103 9.552 188.223 10.224C189.343 10.896 190.23 11.8013 190.883 12.94C191.555 14.06 191.891 15.32 191.891 16.72C191.891 18.12 191.555 19.3893 190.883 20.528C190.211 21.648 189.306 22.544 188.167 23.216C187.028 23.8693 185.759 24.196 184.359 24.196C183.631 24.196 182.922 24.0933 182.231 23.888C181.54 23.6827 180.906 23.384 180.327 22.992V24H176.547ZM183.855 20.948C184.658 20.948 185.376 20.7613 186.011 20.388C186.664 20.0147 187.178 19.5107 187.551 18.876C187.924 18.2413 188.111 17.5227 188.111 16.72C188.111 15.9173 187.924 15.1987 187.551 14.564C187.178 13.9107 186.664 13.4067 186.011 13.052C185.376 12.6787 184.658 12.492 183.855 12.492C183.146 12.492 182.492 12.6133 181.895 12.856C181.316 13.08 180.812 13.4253 180.383 13.892V19.576C180.794 20.0053 181.298 20.3413 181.895 20.584C182.511 20.8267 183.164 20.948 183.855 20.948ZM199.671 24.28C198.327 24.28 197.086 24.112 195.947 23.776C194.809 23.4213 193.819 22.9173 192.979 22.264L194.883 19.716C195.723 20.276 196.526 20.696 197.291 20.976C198.075 21.256 198.85 21.396 199.615 21.396C200.474 21.396 201.155 21.256 201.659 20.976C202.182 20.6773 202.443 20.2947 202.443 19.828C202.443 19.4547 202.294 19.156 201.995 18.932C201.715 18.708 201.258 18.5493 200.623 18.456L197.823 18.036C196.367 17.812 195.266 17.3453 194.519 16.636C193.773 15.908 193.399 14.956 193.399 13.78C193.399 12.828 193.642 12.016 194.127 11.344C194.631 10.6533 195.331 10.1213 196.227 9.748C197.142 9.356 198.225 9.16 199.475 9.16C200.539 9.16 201.575 9.30933 202.583 9.608C203.61 9.90667 204.571 10.364 205.467 10.98L203.619 13.472C202.817 12.968 202.051 12.604 201.323 12.38C200.595 12.156 199.858 12.044 199.111 12.044C198.421 12.044 197.861 12.1747 197.431 12.436C197.021 12.6973 196.815 13.0427 196.815 13.472C196.815 13.864 196.965 14.172 197.263 14.396C197.562 14.62 198.075 14.7787 198.803 14.872L201.575 15.292C203.031 15.4973 204.142 15.964 204.907 16.692C205.673 17.4013 206.055 18.3253 206.055 19.464C206.055 20.3973 205.775 21.228 205.215 21.956C204.655 22.6653 203.899 23.2347 202.947 23.664C201.995 24.0747 200.903 24.28 199.671 24.28Z" fill="#061237"/>
</svg>
