<svg width="52" height="52" viewBox="0 0 52 52" fill="none" xmlns="http://www.w3.org/2000/svg">
<circle cx="26" cy="26" r="26" fill="#1355FF"/>
<path d="M22.33 9.6491L12.5475 15.7078C9.41125 17.6503 9.41125 21.9978 12.5475 23.9403L22.33 29.9991C24.085 31.0937 26.9775 31.0937 28.7325 29.9991L38.4662 23.9403C41.5862 21.9978 41.5862 17.6658 38.4662 15.7233L28.7325 9.66452C26.9775 8.55452 24.085 8.55452 22.33 9.6491Z" stroke="white" stroke-width="4" stroke-linecap="round" stroke-linejoin="round"/>
<path d="M15.1491 25.9141L15.1328 33.1445C15.1328 35.1024 16.7253 37.1991 18.6753 37.8157L23.8591 39.4499C24.7528 39.7274 26.2316 39.7274 27.1416 39.4499L32.3253 37.8157C34.2753 37.1991 35.8678 35.1024 35.8678 33.1445V25.9911" stroke="white" stroke-width="4" stroke-linecap="round" stroke-linejoin="round"/>
<path d="M40.7734 40.2578V31.0078" stroke="white" stroke-width="4" stroke-linecap="round" stroke-linejoin="round"/>
</svg>
