<svg width="52" height="52" viewBox="0 0 52 52" fill="none" xmlns="http://www.w3.org/2000/svg">
<circle cx="26" cy="26" r="26" fill="#1355FF"/>
<path d="M31.7841 36.936C31.3761 36.936 30.9561 36.9 30.5241 36.828C30.0921 36.78 29.6361 36.708 29.1561 36.612L22.7481 35.064C22.5081 35.016 22.2681 34.98 22.0281 34.956C21.7881 34.932 21.5721 34.92 21.3801 34.92C20.6601 34.92 20.0481 35.112 19.5441 35.496C19.0401 35.856 18.5841 36.456 18.1761 37.296L14.4681 34.956C15.1401 33.732 15.9081 32.796 16.7721 32.148C17.6601 31.5 18.6681 31.116 19.7961 30.996C20.2281 30.612 20.4441 30.096 20.4441 29.448C20.4441 29.4 20.4321 29.328 20.4081 29.232C20.4081 29.136 20.3841 28.98 20.3361 28.764C20.2881 28.524 20.2161 28.164 20.1201 27.684C20.0481 27.204 19.9281 26.544 19.7601 25.704H16.2681V22.5H19.1481C19.0041 21.756 18.8961 21.156 18.8241 20.7C18.7521 20.22 18.7041 19.824 18.6801 19.512C18.6561 19.2 18.6441 18.936 18.6441 18.72C18.6441 17.04 18.9921 15.588 19.6881 14.364C20.4081 13.116 21.4161 12.156 22.7121 11.484C24.0321 10.788 25.5801 10.44 27.3561 10.44C29.7321 10.44 31.6881 10.992 33.2241 12.096C34.7601 13.176 35.8401 14.808 36.4641 16.992L32.3961 18.288C31.9881 17.04 31.3881 16.092 30.5961 15.444C29.8041 14.796 28.7841 14.472 27.5361 14.472C26.1441 14.472 25.0761 14.856 24.3321 15.624C23.5881 16.368 23.2161 17.4 23.2161 18.72C23.2161 18.888 23.2281 19.092 23.2521 19.332C23.2761 19.572 23.3361 19.932 23.4321 20.412C23.5281 20.892 23.6481 21.588 23.7921 22.5H30.5961V25.704H24.4761C24.5481 26.184 24.6081 26.592 24.6561 26.928C24.7041 27.24 24.7401 27.492 24.7641 27.684C24.8121 27.876 24.8361 28.044 24.8361 28.188C24.8601 28.308 24.8721 28.416 24.8721 28.512C24.8721 29.736 24.5241 30.696 23.8281 31.392L29.7321 32.796C29.9961 32.868 30.2481 32.916 30.4881 32.94C30.7281 32.964 30.9561 32.976 31.1721 32.976C32.5161 32.976 33.5481 32.268 34.2681 30.852L37.8681 33.012C36.4281 35.628 34.4001 36.936 31.7841 36.936Z" fill="white"/>
</svg>
