<svg width="16" height="16" viewBox="0 0 16 16" fill="none" xmlns="http://www.w3.org/2000/svg">
<g opacity="0.6">
<path d="M6.70099 1.6862L2.68766 4.3062C1.40099 5.1462 1.40099 7.0262 2.68766 7.8662L6.70099 10.4862C7.42099 10.9595 8.60766 10.9595 9.32766 10.4862L13.321 7.8662C14.601 7.0262 14.601 5.15287 13.321 4.31287L9.32766 1.69287C8.60766 1.21287 7.42099 1.21287 6.70099 1.6862Z" stroke="#061237" stroke-width="1.5" stroke-linecap="round" stroke-linejoin="round"/>
<path d="M3.75276 8.7207L3.74609 11.8474C3.74609 12.694 4.39943 13.6007 5.19943 13.8674L7.32609 14.574C7.69276 14.694 8.29943 14.694 8.67276 14.574L10.7994 13.8674C11.5994 13.6007 12.2528 12.694 12.2528 11.8474V8.75404" stroke="#061237" stroke-width="1.5" stroke-linecap="round" stroke-linejoin="round"/>
<path d="M14.2656 10V6" stroke="#061237" stroke-width="1.5" stroke-linecap="round" stroke-linejoin="round"/>
</g>
</svg>
