<svg width="16" height="16" viewBox="0 0 16 16" fill="none" xmlns="http://www.w3.org/2000/svg">
<path d="M7.99832 1.33496C6.67985 1.33496 5.391 1.72593 4.29473 2.45843C3.19847 3.19093 2.34403 4.23206 1.83948 5.45017C1.33492 6.66827 1.2029 8.00864 1.46013 9.30177C1.71735 10.5949 2.35225 11.7827 3.28454 12.715C4.21684 13.6473 5.40466 14.2822 6.69779 14.5394C7.99093 14.7967 9.33129 14.6646 10.5494 14.1601C11.7675 13.6555 12.8086 12.8011 13.5411 11.7048C14.2736 10.6086 14.6646 9.31971 14.6646 8.00125C14.6616 6.23417 13.9583 4.54033 12.7088 3.29081C11.4592 2.04129 9.7654 1.33798 7.99832 1.33496V1.33496ZM11.1857 6.46868L7.40518 10.2492C7.31152 10.3429 7.18449 10.3955 7.05203 10.3955C6.91958 10.3955 6.79255 10.3429 6.69889 10.2492L4.81203 8.36125C4.71931 8.26739 4.66749 8.14066 4.66789 8.00873C4.66829 7.8768 4.72088 7.75038 4.81417 7.65709C4.90746 7.5638 5.03387 7.51122 5.1658 7.51082C5.29774 7.51042 5.42447 7.56224 5.51832 7.65496L7.05203 9.18868L10.4806 5.7601C10.5745 5.66738 10.7012 5.61556 10.8331 5.61596C10.9651 5.61636 11.0915 5.66894 11.1848 5.76224C11.2781 5.85553 11.3306 5.98194 11.331 6.11387C11.3314 6.24581 11.2796 6.37254 11.1869 6.46639L11.1857 6.46868Z" fill="#2FC260"/>
</svg>
