<svg width="48" height="48" viewBox="0 0 48 48" fill="none" xmlns="http://www.w3.org/2000/svg">
<path d="M39.9049 15.8395C39.9293 16.1921 39.9293 16.5447 39.9293 16.9006C39.9293 27.7444 31.6742 40.2506 16.5793 40.2506V40.2441C12.1203 40.2506 7.75381 38.9733 4 36.565C4.64839 36.643 5.30002 36.682 5.95328 36.6837C9.64859 36.6869 13.2383 35.447 16.1454 33.1639C12.6338 33.0972 9.55434 30.8076 8.47857 27.4649C9.70871 27.7022 10.9762 27.6534 12.1836 27.3235C8.35507 26.55 5.60065 23.1862 5.60065 19.2797C5.60065 19.2439 5.60065 19.2098 5.60065 19.1757C6.74142 19.811 8.01869 20.1637 9.32521 20.2027C5.71928 17.7928 4.60776 12.9957 6.78529 9.24512C10.9519 14.3721 17.0993 17.4889 23.6986 17.8188C23.0372 14.9685 23.9407 11.9817 26.0727 9.97801C29.378 6.87096 34.5765 7.03021 37.6835 10.3339C39.5214 9.97151 41.283 9.29712 42.895 8.34161C42.2823 10.2413 41.0002 11.8549 39.2874 12.8803C40.9141 12.6886 42.5034 12.253 44 11.5884C42.8982 13.2394 41.5105 14.6776 39.9049 15.8395Z" fill="white"/>
</svg>
