<svg width="18" height="18" viewBox="0 0 18 18" fill="none" xmlns="http://www.w3.org/2000/svg">
<path d="M15.855 7.42482H9.56296V11.5348C9.55684 11.6799 9.4949 11.817 9.39008 11.9175C9.28526 12.018 9.14567 12.0741 9.00046 12.0741C8.85525 12.0741 8.71565 12.018 8.61083 11.9175C8.50601 11.817 8.44408 11.6799 8.43796 11.5348V7.42482H2.14496C2.06007 7.42416 1.9759 7.44039 1.89734 7.47257C1.81878 7.50474 1.74742 7.55223 1.68739 7.61226C1.62736 7.67228 1.57988 7.74365 1.5477 7.82221C1.51552 7.90076 1.49929 7.98494 1.49996 8.06982C1.45351 9.06707 1.61571 10.063 1.97619 10.994C2.33667 11.925 2.88748 12.7705 3.5934 13.4764C4.29933 14.1823 5.14481 14.7331 6.07578 15.0936C7.00675 15.4541 8.00271 15.6163 8.99996 15.5698C9.9972 15.6163 10.9932 15.4541 11.9241 15.0936C12.8551 14.7331 13.7006 14.1823 14.4065 13.4764C15.1124 12.7705 15.6632 11.925 16.0237 10.994C16.3842 10.063 16.5464 9.06707 16.5 8.06982C16.5006 7.98494 16.4844 7.90076 16.4522 7.82221C16.42 7.74365 16.3726 7.67228 16.3125 7.61226C16.2525 7.55223 16.1811 7.50474 16.1026 7.47257C16.024 7.44039 15.9398 7.42416 15.855 7.42482Z" fill="#1355FF"/>
<path d="M9.5638 4.35024L10.7338 5.52024C10.8399 5.62567 10.9835 5.68463 11.1331 5.68416C11.2826 5.68369 11.4259 5.62383 11.5313 5.51774C11.6367 5.41166 11.6957 5.26804 11.6952 5.11847C11.6947 4.96891 11.6349 4.82567 11.5288 4.72024L9.3908 2.59524C9.28467 2.48923 9.1408 2.42969 8.9908 2.42969C8.8408 2.42969 8.69693 2.48923 8.5908 2.59524L6.4658 4.73224C6.36204 4.83981 6.30306 4.9828 6.3008 5.13224C6.30017 5.20656 6.31445 5.28025 6.34279 5.34895C6.37113 5.41766 6.41296 5.47998 6.4658 5.53224C6.57193 5.63825 6.7158 5.6978 6.8658 5.6978C7.0158 5.6978 7.15967 5.63825 7.2658 5.53224L8.4358 4.36224V7.42524H9.5558V4.35024H9.5638Z" fill="#1355FF"/>
</svg>
