<svg width="16" height="16" viewBox="0 0 16 16" fill="none" xmlns="http://www.w3.org/2000/svg">
<g opacity="0.6">
<path d="M8.35203 13.6134H4.1387C2.03203 13.6134 1.33203 12.2134 1.33203 10.8067V5.19339C1.33203 3.08672 2.03203 2.38672 4.1387 2.38672H8.35203C10.4587 2.38672 11.1587 3.08672 11.1587 5.19339V10.8067C11.1587 12.9134 10.452 13.6134 8.35203 13.6134Z" stroke="#061237" stroke-width="1.5" stroke-linecap="round" stroke-linejoin="round"/>
<path d="M13.0135 11.4001L11.1602 10.1001V5.89342L13.0135 4.59342C13.9202 3.96009 14.6668 4.34675 14.6668 5.46009V10.5401C14.6668 11.6534 13.9202 12.0401 13.0135 11.4001Z" stroke="#061237" stroke-width="1.5" stroke-linecap="round" stroke-linejoin="round"/>
<path d="M7.66797 7.33398C8.22025 7.33398 8.66797 6.88627 8.66797 6.33398C8.66797 5.7817 8.22025 5.33398 7.66797 5.33398C7.11568 5.33398 6.66797 5.7817 6.66797 6.33398C6.66797 6.88627 7.11568 7.33398 7.66797 7.33398Z" stroke="#061237" stroke-width="1.5" stroke-linecap="round" stroke-linejoin="round"/>
</g>
</svg>
