<svg width="183" height="33" viewBox="0 0 183 33" fill="none" xmlns="http://www.w3.org/2000/svg">
<path d="M22.8457 10.5621C21.9248 9.5438 20.3865 9.03464 18.1548 9.03464H17.8948V8.9913C17.8948 7.1713 17.8948 4.91797 13.8215 4.91797H12.1748C8.1015 4.91797 8.1015 7.18214 8.1015 8.9913V9.04547H7.8415C5.599 9.04547 4.0715 9.55464 3.15067 10.573C2.07817 11.7646 2.11067 13.368 2.219 14.4621L2.22984 14.538L2.33817 15.6755C2.349 15.6863 2.37067 15.708 2.39234 15.7188C2.74984 15.9571 3.11817 16.1955 3.50817 16.4121C3.65984 16.5096 3.82234 16.5963 3.98484 16.683C5.83734 17.7013 7.874 18.3838 9.94317 18.7196C10.0407 19.738 10.4848 20.9296 12.8573 20.9296C15.2298 20.9296 15.6957 19.7488 15.7715 18.698C17.9815 18.3405 20.1157 17.5713 22.044 16.4446C22.109 16.4121 22.1523 16.3796 22.2065 16.3471C22.7048 16.0655 23.1707 15.7621 23.6257 15.4263C23.6473 15.4155 23.669 15.3938 23.6798 15.3721L23.7232 14.9821L23.7773 14.473C23.7882 14.408 23.7882 14.3538 23.799 14.278C23.8857 13.1838 23.864 11.6888 22.8457 10.5621ZM14.179 17.983C14.179 19.1313 14.179 19.3046 12.8465 19.3046C11.514 19.3046 11.514 19.0988 11.514 17.9938V16.6288H14.179V17.983ZM9.65067 9.03464V8.9913C9.65067 7.14964 9.65067 6.46714 12.1748 6.46714H13.8215C16.3457 6.46714 16.3457 7.16047 16.3457 8.9913V9.04547H9.65067V9.03464Z" fill="#1355FF"/>
<path opacity="0.4" d="M22.2082 16.3246C22.154 16.3571 22.0998 16.3896 22.0457 16.4221C20.1173 17.5488 17.9832 18.3071 15.7732 18.6754C15.6865 19.7154 15.2315 20.9071 12.859 20.9071C10.4865 20.9071 10.0315 19.7263 9.94484 18.6971C7.87568 18.3721 5.83901 17.6896 3.98651 16.6604C3.82401 16.5738 3.66151 16.4871 3.50984 16.3896C3.11984 16.1729 2.75151 15.9346 2.39401 15.6963C2.37234 15.6854 2.35068 15.6638 2.33984 15.6529L3.00068 22.7054C3.22818 24.8613 4.11651 27.0821 8.88318 27.0821H17.1382C21.9048 27.0821 22.7932 24.8613 23.0207 22.6946L23.7032 15.3496C23.6923 15.3713 23.6707 15.3929 23.649 15.4038C23.1832 15.7396 22.7065 16.0538 22.2082 16.3246Z" fill="#1355FF"/>
<path d="M39.68 26.3C38.48 26.3 37.41 26.04 36.47 25.52C35.55 24.98 34.82 24.24 34.28 23.3C33.76 22.36 33.5 21.28 33.5 20.06V10.37H37.61V19.46C37.61 20.46 37.9 21.26 38.48 21.86C39.08 22.46 39.88 22.76 40.88 22.76C41.56 22.76 42.17 22.63 42.71 22.37C43.27 22.09 43.73 21.7 44.09 21.2V10.37H48.2V26H44.09V24.74C42.89 25.78 41.42 26.3 39.68 26.3ZM51.4032 26V5L55.5132 4.31V16.94L62.2632 10.37H66.9132L59.5332 17.54L67.3632 26H62.1132L55.5132 18.86V26H51.4032ZM73.6412 26L66.9512 10.37H71.4212L75.7112 20.78L79.9712 10.37H84.3512L77.6312 26H73.6412ZM85.9735 26V10.37H90.0835V26H85.9735ZM88.0135 8.51C87.3735 8.51 86.8235 8.28 86.3635 7.82C85.9035 7.36 85.6735 6.81 85.6735 6.17C85.6735 5.51 85.9035 4.96 86.3635 4.52C86.8235 4.06 87.3735 3.83 88.0135 3.83C88.6735 3.83 89.2235 4.06 89.6635 4.52C90.1235 4.96 90.3535 5.51 90.3535 6.17C90.3535 6.81 90.1235 7.36 89.6635 7.82C89.2235 8.28 88.6735 8.51 88.0135 8.51ZM99.1477 26.3C97.7077 26.3 96.3777 26.12 95.1577 25.76C93.9377 25.38 92.8777 24.84 91.9777 24.14L94.0177 21.41C94.9177 22.01 95.7777 22.46 96.5977 22.76C97.4377 23.06 98.2677 23.21 99.0877 23.21C100.008 23.21 100.738 23.06 101.278 22.76C101.838 22.44 102.118 22.03 102.118 21.53C102.118 21.13 101.958 20.81 101.638 20.57C101.338 20.33 100.848 20.16 100.168 20.06L97.1677 19.61C95.6077 19.37 94.4277 18.87 93.6277 18.11C92.8277 17.33 92.4277 16.31 92.4277 15.05C92.4277 14.03 92.6877 13.16 93.2077 12.44C93.7477 11.7 94.4977 11.13 95.4577 10.73C96.4377 10.31 97.5977 10.1 98.9377 10.1C100.078 10.1 101.188 10.26 102.268 10.58C103.368 10.9 104.398 11.39 105.358 12.05L103.378 14.72C102.518 14.18 101.698 13.79 100.918 13.55C100.138 13.31 99.3477 13.19 98.5477 13.19C97.8077 13.19 97.2077 13.33 96.7477 13.61C96.3077 13.89 96.0877 14.26 96.0877 14.72C96.0877 15.14 96.2477 15.47 96.5677 15.71C96.8877 15.95 97.4377 16.12 98.2177 16.22L101.188 16.67C102.748 16.89 103.938 17.39 104.758 18.17C105.578 18.93 105.988 19.92 105.988 21.14C105.988 22.14 105.688 23.03 105.088 23.81C104.488 24.57 103.678 25.18 102.658 25.64C101.638 26.08 100.468 26.3 99.1477 26.3ZM113.161 26.27C112.041 26.27 111.051 26.07 110.191 25.67C109.331 25.25 108.661 24.68 108.181 23.96C107.701 23.24 107.461 22.41 107.461 21.47C107.461 19.97 108.021 18.81 109.141 17.99C110.281 17.15 111.841 16.73 113.821 16.73C115.181 16.73 116.461 16.94 117.661 17.36V16.22C117.661 15.32 117.381 14.64 116.821 14.18C116.261 13.72 115.441 13.49 114.361 13.49C113.701 13.49 112.991 13.6 112.231 13.82C111.471 14.02 110.591 14.34 109.591 14.78L108.091 11.75C109.331 11.19 110.511 10.77 111.631 10.49C112.771 10.21 113.911 10.07 115.051 10.07C117.151 10.07 118.781 10.58 119.941 11.6C121.121 12.6 121.711 14.02 121.711 15.86V26H117.661V24.89C117.021 25.37 116.331 25.72 115.591 25.94C114.851 26.16 114.041 26.27 113.161 26.27ZM111.361 21.38C111.361 21.98 111.621 22.46 112.141 22.82C112.661 23.16 113.351 23.33 114.211 23.33C114.891 23.33 115.521 23.25 116.101 23.09C116.681 22.91 117.201 22.65 117.661 22.31V20.03C117.161 19.83 116.641 19.68 116.101 19.58C115.561 19.48 114.981 19.43 114.361 19.43C113.421 19.43 112.681 19.61 112.141 19.97C111.621 20.31 111.361 20.78 111.361 21.38ZM126.861 8.51C126.221 8.51 125.671 8.28 125.211 7.82C124.751 7.36 124.521 6.81 124.521 6.17C124.521 5.51 124.751 4.96 125.211 4.52C125.671 4.06 126.221 3.83 126.861 3.83C127.521 3.83 128.071 4.06 128.511 4.52C128.971 4.96 129.201 5.51 129.201 6.17C129.201 6.81 128.971 7.36 128.511 7.82C128.071 8.28 127.521 8.51 126.861 8.51ZM123.861 32.42C123.481 32.42 123.091 32.39 122.691 32.33C122.291 32.29 121.971 32.23 121.731 32.15V29C122.091 29.08 122.531 29.12 123.051 29.12C123.651 29.12 124.091 28.99 124.371 28.73C124.671 28.49 124.821 28.09 124.821 27.53V10.37H128.931V27.77C128.931 29.25 128.491 30.39 127.611 31.19C126.731 32.01 125.481 32.42 123.861 32.42ZM139.765 26.3C138.205 26.3 136.795 25.94 135.535 25.22C134.275 24.5 133.275 23.53 132.535 22.31C131.795 21.09 131.425 19.72 131.425 18.2C131.425 16.68 131.785 15.31 132.505 14.09C133.245 12.85 134.245 11.87 135.505 11.15C136.785 10.43 138.205 10.07 139.765 10.07C141.325 10.07 142.735 10.43 143.995 11.15C145.275 11.87 146.275 12.85 146.995 14.09C147.735 15.31 148.105 16.68 148.105 18.2C148.105 19.72 147.735 21.09 146.995 22.31C146.275 23.53 145.285 24.5 144.025 25.22C142.765 25.94 141.345 26.3 139.765 26.3ZM139.765 22.73C140.585 22.73 141.315 22.53 141.955 22.13C142.615 21.73 143.135 21.19 143.515 20.51C143.915 19.81 144.115 19.04 144.115 18.2C144.115 17.34 143.915 16.57 143.515 15.89C143.135 15.21 142.615 14.67 141.955 14.27C141.315 13.85 140.585 13.64 139.765 13.64C138.965 13.64 138.235 13.85 137.575 14.27C136.915 14.67 136.395 15.21 136.015 15.89C135.635 16.57 135.445 17.34 135.445 18.2C135.445 19.04 135.635 19.81 136.015 20.51C136.395 21.19 136.915 21.73 137.575 22.13C138.235 22.53 138.965 22.73 139.765 22.73ZM150.632 26V5L154.742 4.31V11.63C155.982 10.65 157.442 10.16 159.122 10.16C160.602 10.16 161.942 10.52 163.142 11.24C164.342 11.96 165.292 12.93 165.992 14.15C166.712 15.35 167.072 16.7 167.072 18.2C167.072 19.7 166.712 21.06 165.992 22.28C165.272 23.48 164.302 24.44 163.082 25.16C161.862 25.86 160.502 26.21 159.002 26.21C158.222 26.21 157.462 26.1 156.722 25.88C155.982 25.66 155.302 25.34 154.682 24.92V26H150.632ZM158.462 22.73C159.322 22.73 160.092 22.53 160.772 22.13C161.472 21.73 162.022 21.19 162.422 20.51C162.822 19.83 163.022 19.06 163.022 18.2C163.022 17.34 162.822 16.57 162.422 15.89C162.022 15.19 161.472 14.65 160.772 14.27C160.092 13.87 159.322 13.67 158.462 13.67C157.702 13.67 157.002 13.8 156.362 14.06C155.742 14.3 155.202 14.67 154.742 15.17V21.26C155.182 21.72 155.722 22.08 156.362 22.34C157.022 22.6 157.722 22.73 158.462 22.73ZM175.408 26.3C173.968 26.3 172.638 26.12 171.418 25.76C170.198 25.38 169.138 24.84 168.238 24.14L170.278 21.41C171.178 22.01 172.038 22.46 172.858 22.76C173.698 23.06 174.528 23.21 175.348 23.21C176.268 23.21 176.998 23.06 177.538 22.76C178.098 22.44 178.378 22.03 178.378 21.53C178.378 21.13 178.218 20.81 177.898 20.57C177.598 20.33 177.108 20.16 176.428 20.06L173.428 19.61C171.868 19.37 170.688 18.87 169.888 18.11C169.088 17.33 168.688 16.31 168.688 15.05C168.688 14.03 168.948 13.16 169.468 12.44C170.008 11.7 170.758 11.13 171.718 10.73C172.698 10.31 173.858 10.1 175.198 10.1C176.338 10.1 177.448 10.26 178.528 10.58C179.628 10.9 180.658 11.39 181.618 12.05L179.638 14.72C178.778 14.18 177.958 13.79 177.178 13.55C176.398 13.31 175.608 13.19 174.808 13.19C174.068 13.19 173.468 13.33 173.008 13.61C172.568 13.89 172.347 14.26 172.347 14.72C172.347 15.14 172.508 15.47 172.828 15.71C173.148 15.95 173.698 16.12 174.478 16.22L177.448 16.67C179.008 16.89 180.198 17.39 181.018 18.17C181.838 18.93 182.248 19.92 182.248 21.14C182.248 22.14 181.948 23.03 181.348 23.81C180.748 24.57 179.938 25.18 178.918 25.64C177.898 26.08 176.728 26.3 175.408 26.3Z" fill="#061237"/>
</svg>
